<svg width="592" height="175" viewBox="0 0 592 175" fill="none" xmlns="http://www.w3.org/2000/svg">
<path d="M0.881 3.29999H71.012V27.4H27.391V74.395H61.613V98.495H27.391V172H0.881V3.29999ZM78.9048 3.29999H118.188C131.844 3.29999 141.806 6.51332 148.072 12.94C154.338 19.206 157.471 28.9263 157.471 42.101V52.464C157.471 69.9767 151.687 81.0627 140.119 85.722V86.204C146.545 88.132 151.044 92.0683 153.615 98.013C156.346 103.958 157.712 111.911 157.712 121.872V151.515C157.712 156.335 157.872 160.271 158.194 163.324C158.515 166.216 159.318 169.108 160.604 172H133.612C132.648 169.269 132.005 166.698 131.684 164.288C131.362 161.878 131.202 157.54 131.202 151.274V120.426C131.202 112.714 129.916 107.332 127.346 104.279C124.936 101.226 120.678 99.7 114.573 99.7H105.415V172H78.9048V3.29999ZM115.055 75.6C120.357 75.6 124.293 74.2343 126.864 71.503C129.595 68.7717 130.961 64.1927 130.961 57.766V44.752C130.961 38.6467 129.836 34.2283 127.587 31.497C125.498 28.7657 122.124 27.4 117.465 27.4H105.415V75.6H115.055ZM171.285 3.29999H243.585V27.4H197.795V71.985H234.186V96.085H197.795V147.9H243.585V172H171.285V3.29999ZM254.016 3.29999H326.316V27.4H280.526V71.985H316.917V96.085H280.526V147.9H326.316V172H254.016V3.29999ZM336.747 3.29999H377.235C390.409 3.29999 400.29 6.83466 406.878 13.904C413.465 20.9733 416.759 31.3363 416.759 44.993V130.307C416.759 143.964 413.465 154.327 406.878 161.396C400.29 168.465 390.409 172 377.235 172H336.747V3.29999ZM376.753 147.9C381.091 147.9 384.384 146.615 386.634 144.044C389.044 141.473 390.249 137.296 390.249 131.512V43.788C390.249 38.004 389.044 33.8267 386.634 31.256C384.384 28.6853 381.091 27.4 376.753 27.4H363.257V147.9H376.753ZM467.429 174.41C454.575 174.41 444.775 170.795 438.027 163.565C431.279 156.174 427.905 145.651 427.905 131.994V43.306C427.905 29.6493 431.279 19.206 438.027 11.976C444.775 4.58532 454.575 0.889991 467.429 0.889991C480.282 0.889991 490.083 4.58532 496.831 11.976C503.579 19.206 506.953 29.6493 506.953 43.306V57.766H481.889V41.619C481.889 30.533 477.31 24.99 468.152 24.99C458.994 24.99 454.415 30.533 454.415 41.619V133.922C454.415 144.847 458.994 150.31 468.152 150.31C477.31 150.31 481.889 144.847 481.889 133.922V100.905H468.634V76.805H506.953V131.994C506.953 145.651 503.579 156.174 496.831 163.565C490.083 170.795 480.282 174.41 467.429 174.41ZM519.153 3.29999H591.453V27.4H545.663V71.985H582.054V96.085H545.663V147.9H591.453V172H519.153V3.29999Z" fill="url(#paint0_radial_1_2492)"/>
<path d="M0.881 3.29999H71.012V27.4H27.391V74.395H61.613V98.495H27.391V172H0.881V3.29999ZM78.9048 3.29999H118.188C131.844 3.29999 141.806 6.51332 148.072 12.94C154.338 19.206 157.471 28.9263 157.471 42.101V52.464C157.471 69.9767 151.687 81.0627 140.119 85.722V86.204C146.545 88.132 151.044 92.0683 153.615 98.013C156.346 103.958 157.712 111.911 157.712 121.872V151.515C157.712 156.335 157.872 160.271 158.194 163.324C158.515 166.216 159.318 169.108 160.604 172H133.612C132.648 169.269 132.005 166.698 131.684 164.288C131.362 161.878 131.202 157.54 131.202 151.274V120.426C131.202 112.714 129.916 107.332 127.346 104.279C124.936 101.226 120.678 99.7 114.573 99.7H105.415V172H78.9048V3.29999ZM115.055 75.6C120.357 75.6 124.293 74.2343 126.864 71.503C129.595 68.7717 130.961 64.1927 130.961 57.766V44.752C130.961 38.6467 129.836 34.2283 127.587 31.497C125.498 28.7657 122.124 27.4 117.465 27.4H105.415V75.6H115.055ZM171.285 3.29999H243.585V27.4H197.795V71.985H234.186V96.085H197.795V147.9H243.585V172H171.285V3.29999ZM254.016 3.29999H326.316V27.4H280.526V71.985H316.917V96.085H280.526V147.9H326.316V172H254.016V3.29999ZM336.747 3.29999H377.235C390.409 3.29999 400.29 6.83466 406.878 13.904C413.465 20.9733 416.759 31.3363 416.759 44.993V130.307C416.759 143.964 413.465 154.327 406.878 161.396C400.29 168.465 390.409 172 377.235 172H336.747V3.29999ZM376.753 147.9C381.091 147.9 384.384 146.615 386.634 144.044C389.044 141.473 390.249 137.296 390.249 131.512V43.788C390.249 38.004 389.044 33.8267 386.634 31.256C384.384 28.6853 381.091 27.4 376.753 27.4H363.257V147.9H376.753ZM467.429 174.41C454.575 174.41 444.775 170.795 438.027 163.565C431.279 156.174 427.905 145.651 427.905 131.994V43.306C427.905 29.6493 431.279 19.206 438.027 11.976C444.775 4.58532 454.575 0.889991 467.429 0.889991C480.282 0.889991 490.083 4.58532 496.831 11.976C503.579 19.206 506.953 29.6493 506.953 43.306V57.766H481.889V41.619C481.889 30.533 477.31 24.99 468.152 24.99C458.994 24.99 454.415 30.533 454.415 41.619V133.922C454.415 144.847 458.994 150.31 468.152 150.31C477.31 150.31 481.889 144.847 481.889 133.922V100.905H468.634V76.805H506.953V131.994C506.953 145.651 503.579 156.174 496.831 163.565C490.083 170.795 480.282 174.41 467.429 174.41ZM519.153 3.29999H591.453V27.4H545.663V71.985H582.054V96.085H545.663V147.9H591.453V172H519.153V3.29999Z" fill="url(#paint1_linear_1_2492)"/>
<path d="M0.881 3.29999H71.012V27.4H27.391V74.395H61.613V98.495H27.391V172H0.881V3.29999ZM78.9048 3.29999H118.188C131.844 3.29999 141.806 6.51332 148.072 12.94C154.338 19.206 157.471 28.9263 157.471 42.101V52.464C157.471 69.9767 151.687 81.0627 140.119 85.722V86.204C146.545 88.132 151.044 92.0683 153.615 98.013C156.346 103.958 157.712 111.911 157.712 121.872V151.515C157.712 156.335 157.872 160.271 158.194 163.324C158.515 166.216 159.318 169.108 160.604 172H133.612C132.648 169.269 132.005 166.698 131.684 164.288C131.362 161.878 131.202 157.54 131.202 151.274V120.426C131.202 112.714 129.916 107.332 127.346 104.279C124.936 101.226 120.678 99.7 114.573 99.7H105.415V172H78.9048V3.29999ZM115.055 75.6C120.357 75.6 124.293 74.2343 126.864 71.503C129.595 68.7717 130.961 64.1927 130.961 57.766V44.752C130.961 38.6467 129.836 34.2283 127.587 31.497C125.498 28.7657 122.124 27.4 117.465 27.4H105.415V75.6H115.055ZM171.285 3.29999H243.585V27.4H197.795V71.985H234.186V96.085H197.795V147.9H243.585V172H171.285V3.29999ZM254.016 3.29999H326.316V27.4H280.526V71.985H316.917V96.085H280.526V147.9H326.316V172H254.016V3.29999ZM336.747 3.29999H377.235C390.409 3.29999 400.29 6.83466 406.878 13.904C413.465 20.9733 416.759 31.3363 416.759 44.993V130.307C416.759 143.964 413.465 154.327 406.878 161.396C400.29 168.465 390.409 172 377.235 172H336.747V3.29999ZM376.753 147.9C381.091 147.9 384.384 146.615 386.634 144.044C389.044 141.473 390.249 137.296 390.249 131.512V43.788C390.249 38.004 389.044 33.8267 386.634 31.256C384.384 28.6853 381.091 27.4 376.753 27.4H363.257V147.9H376.753ZM467.429 174.41C454.575 174.41 444.775 170.795 438.027 163.565C431.279 156.174 427.905 145.651 427.905 131.994V43.306C427.905 29.6493 431.279 19.206 438.027 11.976C444.775 4.58532 454.575 0.889991 467.429 0.889991C480.282 0.889991 490.083 4.58532 496.831 11.976C503.579 19.206 506.953 29.6493 506.953 43.306V57.766H481.889V41.619C481.889 30.533 477.31 24.99 468.152 24.99C458.994 24.99 454.415 30.533 454.415 41.619V133.922C454.415 144.847 458.994 150.31 468.152 150.31C477.31 150.31 481.889 144.847 481.889 133.922V100.905H468.634V76.805H506.953V131.994C506.953 145.651 503.579 156.174 496.831 163.565C490.083 170.795 480.282 174.41 467.429 174.41ZM519.153 3.29999H591.453V27.4H545.663V71.985H582.054V96.085H545.663V147.9H591.453V172H519.153V3.29999Z" fill="url(#paint2_radial_1_2492)"/>
<path d="M0.881 3.29999H71.012V27.4H27.391V74.395H61.613V98.495H27.391V172H0.881V3.29999ZM78.9048 3.29999H118.188C131.844 3.29999 141.806 6.51332 148.072 12.94C154.338 19.206 157.471 28.9263 157.471 42.101V52.464C157.471 69.9767 151.687 81.0627 140.119 85.722V86.204C146.545 88.132 151.044 92.0683 153.615 98.013C156.346 103.958 157.712 111.911 157.712 121.872V151.515C157.712 156.335 157.872 160.271 158.194 163.324C158.515 166.216 159.318 169.108 160.604 172H133.612C132.648 169.269 132.005 166.698 131.684 164.288C131.362 161.878 131.202 157.54 131.202 151.274V120.426C131.202 112.714 129.916 107.332 127.346 104.279C124.936 101.226 120.678 99.7 114.573 99.7H105.415V172H78.9048V3.29999ZM115.055 75.6C120.357 75.6 124.293 74.2343 126.864 71.503C129.595 68.7717 130.961 64.1927 130.961 57.766V44.752C130.961 38.6467 129.836 34.2283 127.587 31.497C125.498 28.7657 122.124 27.4 117.465 27.4H105.415V75.6H115.055ZM171.285 3.29999H243.585V27.4H197.795V71.985H234.186V96.085H197.795V147.9H243.585V172H171.285V3.29999ZM254.016 3.29999H326.316V27.4H280.526V71.985H316.917V96.085H280.526V147.9H326.316V172H254.016V3.29999ZM336.747 3.29999H377.235C390.409 3.29999 400.29 6.83466 406.878 13.904C413.465 20.9733 416.759 31.3363 416.759 44.993V130.307C416.759 143.964 413.465 154.327 406.878 161.396C400.29 168.465 390.409 172 377.235 172H336.747V3.29999ZM376.753 147.9C381.091 147.9 384.384 146.615 386.634 144.044C389.044 141.473 390.249 137.296 390.249 131.512V43.788C390.249 38.004 389.044 33.8267 386.634 31.256C384.384 28.6853 381.091 27.4 376.753 27.4H363.257V147.9H376.753ZM467.429 174.41C454.575 174.41 444.775 170.795 438.027 163.565C431.279 156.174 427.905 145.651 427.905 131.994V43.306C427.905 29.6493 431.279 19.206 438.027 11.976C444.775 4.58532 454.575 0.889991 467.429 0.889991C480.282 0.889991 490.083 4.58532 496.831 11.976C503.579 19.206 506.953 29.6493 506.953 43.306V57.766H481.889V41.619C481.889 30.533 477.31 24.99 468.152 24.99C458.994 24.99 454.415 30.533 454.415 41.619V133.922C454.415 144.847 458.994 150.31 468.152 150.31C477.31 150.31 481.889 144.847 481.889 133.922V100.905H468.634V76.805H506.953V131.994C506.953 145.651 503.579 156.174 496.831 163.565C490.083 170.795 480.282 174.41 467.429 174.41ZM519.153 3.29999H591.453V27.4H545.663V71.985H582.054V96.085H545.663V147.9H591.453V172H519.153V3.29999Z" fill="url(#paint3_radial_1_2492)"/>
<defs>
<radialGradient id="paint0_radial_1_2492" cx="0" cy="0" r="1" gradientUnits="userSpaceOnUse" gradientTransform="translate(294 100) rotate(90) scale(105 303)">
<stop stop-color="#2EA2E0"/>
<stop offset="1" stop-color="#1061AB"/>
</radialGradient>
<linearGradient id="paint1_linear_1_2492" x1="294" y1="-5" x2="294" y2="172" gradientUnits="userSpaceOnUse">
<stop stop-color="#0053A2"/>
<stop offset="0.5" stop-color="#0070C5"/>
<stop offset="1" stop-color="#0990D8"/>
</linearGradient>
<radialGradient id="paint2_radial_1_2492" cx="0" cy="0" r="1" gradientUnits="userSpaceOnUse" gradientTransform="translate(294 83.5) rotate(90) scale(88.5 292.878)">
<stop stop-color="#0990D8"/>
<stop offset="0.5" stop-color="#0070C5"/>
<stop offset="1" stop-color="#0053A2"/>
</radialGradient>
<radialGradient id="paint3_radial_1_2492" cx="0" cy="0" r="1" gradientUnits="userSpaceOnUse" gradientTransform="translate(292.045 83.3663) rotate(90) scale(88.3663 149.367)">
<stop stop-color="#089BE9"/>
<stop offset="0.5" stop-color="#0070C5"/>
<stop offset="1" stop-color="#0058B4"/>
</radialGradient>
</defs>
</svg>
