<svg width="454" height="177" viewBox="0 0 454 177" fill="none" xmlns="http://www.w3.org/2000/svg">
<mask id="path-1-outside-1_1_2491" maskUnits="userSpaceOnUse" x="0" y="0" width="454" height="177" fill="black">
<rect fill="white" width="454" height="177"/>
<path d="M29.366 4.29999H65.275L92.749 173H66.239L61.419 139.501V139.983H31.294L26.474 173H1.892L29.366 4.29999ZM58.286 117.088L46.477 33.702H45.995L34.427 117.088H58.286ZM100.79 4.29999H140.796C154.453 4.29999 164.414 7.51332 170.68 13.94C176.946 20.206 180.079 29.9263 180.079 43.101V49.849C180.079 58.525 178.633 65.5943 175.741 71.057C173.01 76.5197 168.752 80.456 162.968 82.866V83.348C176.143 87.8467 182.73 99.5753 182.73 118.534V132.994C182.73 146.008 179.276 155.969 172.367 162.878C165.619 169.626 155.658 173 142.483 173H100.79V4.29999ZM137.663 72.985C142.965 72.985 146.902 71.6193 149.472 68.888C152.204 66.1567 153.569 61.5777 153.569 55.151V45.752C153.569 39.6467 152.445 35.2283 150.195 32.497C148.107 29.7657 144.733 28.4 140.073 28.4H127.3V72.985H137.663ZM142.483 148.9C147.143 148.9 150.597 147.695 152.846 145.285C155.096 142.714 156.22 138.376 156.22 132.271V117.57C156.22 109.858 154.855 104.556 152.123 101.664C149.553 98.6113 145.215 97.085 139.109 97.085H127.3V148.9H142.483ZM231.725 175.41C218.711 175.41 208.75 171.715 201.841 164.324C194.932 156.933 191.478 146.49 191.478 132.994V44.306C191.478 30.81 194.932 20.3667 201.841 12.976C208.75 5.58532 218.711 1.88999 231.725 1.88999C244.739 1.88999 254.7 5.58532 261.609 12.976C268.518 20.3667 271.972 30.81 271.972 44.306V132.994C271.972 146.49 268.518 156.933 261.609 164.324C254.7 171.715 244.739 175.41 231.725 175.41ZM231.725 151.31C240.883 151.31 245.462 145.767 245.462 134.681V42.619C245.462 31.533 240.883 25.99 231.725 25.99C222.567 25.99 217.988 31.533 217.988 42.619V134.681C217.988 145.767 222.567 151.31 231.725 151.31ZM323.64 175.41C310.787 175.41 300.986 171.795 294.238 164.565C287.49 157.174 284.116 146.651 284.116 132.994V4.29999H310.626V134.922C310.626 140.706 311.751 144.883 314 147.454C316.41 150.025 319.784 151.31 324.122 151.31C328.46 151.31 331.754 150.025 334.003 147.454C336.413 144.883 337.618 140.706 337.618 134.922V4.29999H363.164V132.994C363.164 146.651 359.79 157.174 353.042 164.565C346.294 171.795 336.494 175.41 323.64 175.41ZM397.951 28.4H370.236V4.29999H452.176V28.4H424.461V173H397.951V28.4Z"/>
</mask>
<path d="M29.366 4.29999V2.79999H28.0905L27.8855 4.05888L29.366 4.29999ZM65.275 4.29999L66.7555 4.05888L66.5505 2.79999H65.275V4.29999ZM92.749 173V174.5H94.5131L94.2295 172.759L92.749 173ZM66.239 173L64.7543 173.214L64.9394 174.5H66.239V173ZM61.419 139.501L62.9037 139.287L59.919 139.501H61.419ZM61.419 139.983V141.483H62.919V139.983H61.419ZM31.294 139.983V138.483H29.9971L29.8097 139.766L31.294 139.983ZM26.474 173V174.5H27.7709L27.9583 173.217L26.474 173ZM1.892 173L0.411505 172.759L0.127953 174.5H1.892V173ZM58.286 117.088V118.588H60.0134L59.7712 116.878L58.286 117.088ZM46.477 33.702L47.9622 33.4917L47.7795 32.202H46.477V33.702ZM45.995 33.702V32.202H44.6887L44.5092 33.4959L45.995 33.702ZM34.427 117.088L32.9412 116.882L32.7045 118.588H34.427V117.088ZM29.366 4.29999V5.79999H65.275V4.29999V2.79999H29.366V4.29999ZM65.275 4.29999L63.7945 4.5411L91.2685 173.241L92.749 173L94.2295 172.759L66.7555 4.05888L65.275 4.29999ZM92.749 173V171.5H66.239V173V174.5H92.749V173ZM66.239 173L67.7237 172.786L62.9037 139.287L61.419 139.501L59.9343 139.715L64.7543 173.214L66.239 173ZM61.419 139.501H59.919V139.983H61.419H62.919V139.501H61.419ZM61.419 139.983V138.483H31.294V139.983V141.483H61.419V139.983ZM31.294 139.983L29.8097 139.766L24.9897 172.783L26.474 173L27.9583 173.217L32.7783 140.2L31.294 139.983ZM26.474 173V171.5H1.892V173V174.5H26.474V173ZM1.892 173L3.3725 173.241L30.8465 4.5411L29.366 4.29999L27.8855 4.05888L0.411505 172.759L1.892 173ZM58.286 117.088L59.7712 116.878L47.9622 33.4917L46.477 33.702L44.9918 33.9123L56.8008 117.298L58.286 117.088ZM46.477 33.702V32.202H45.995V33.702V35.202H46.477V33.702ZM45.995 33.702L44.5092 33.4959L32.9412 116.882L34.427 117.088L35.9128 117.294L47.4808 33.9081L45.995 33.702ZM34.427 117.088V118.588H58.286V117.088V115.588H34.427V117.088ZM100.79 4.29999V2.79999H99.2905V4.29999H100.79ZM170.68 13.94L169.606 14.9871L169.613 14.9939L169.62 15.0007L170.68 13.94ZM175.741 71.057L174.416 70.3552L174.408 70.3706L174.4 70.3862L175.741 71.057ZM162.968 82.866L162.392 81.4814L161.468 81.866V82.866H162.968ZM162.968 83.348H161.468V84.4208L162.484 84.7675L162.968 83.348ZM172.367 162.878L173.428 163.939L173.428 163.939L172.367 162.878ZM100.79 173H99.2905V174.5H100.79V173ZM149.472 68.888L148.412 67.8273L148.396 67.8434L148.38 67.8599L149.472 68.888ZM150.195 32.497L149.004 33.4082L149.02 33.4297L149.038 33.4506L150.195 32.497ZM127.3 28.4V26.9H125.8V28.4H127.3ZM127.3 72.985H125.8V74.485H127.3V72.985ZM152.846 145.285L153.943 146.308L153.96 146.291L153.975 146.273L152.846 145.285ZM152.123 101.664L150.976 102.63L151.004 102.663L151.033 102.694L152.123 101.664ZM127.3 97.085V95.585H125.8V97.085H127.3ZM127.3 148.9H125.8V150.4H127.3V148.9ZM100.79 4.29999V5.79999H140.796V4.29999V2.79999H100.79V4.29999ZM140.796 4.29999V5.79999C154.257 5.79999 163.741 8.97111 169.606 14.9871L170.68 13.94L171.755 12.8928C165.088 6.05554 154.65 2.79999 140.796 2.79999V4.29999ZM170.68 13.94L169.62 15.0007C175.493 20.8737 178.579 30.1321 178.579 43.101H180.079H181.579C181.579 29.7205 178.4 19.5382 171.741 12.8793L170.68 13.94ZM180.079 43.101H178.579V49.849H180.079H181.579V43.101H180.079ZM180.079 49.849H178.579C178.579 58.3734 177.157 65.1783 174.416 70.3552L175.741 71.057L177.067 71.7588C180.11 66.0104 181.579 58.6766 181.579 49.849H180.079ZM175.741 71.057L174.4 70.3862C171.834 75.5178 167.853 79.2059 162.392 81.4814L162.968 82.866L163.545 84.2506C169.652 81.7061 174.186 77.5215 177.083 71.7278L175.741 71.057ZM162.968 82.866H161.468V83.348H162.968H164.468V82.866H162.968ZM162.968 83.348L162.484 84.7675C168.735 86.9022 173.376 90.7227 176.482 96.253C179.609 101.82 181.23 109.212 181.23 118.534H182.73H184.23C184.23 108.897 182.559 100.946 179.098 94.784C175.617 88.5857 170.376 84.2925 163.453 81.9285L162.968 83.348ZM182.73 118.534H181.23V132.994H182.73H184.23V118.534H182.73ZM182.73 132.994H181.23C181.23 145.747 177.85 155.274 171.307 161.817L172.367 162.878L173.428 163.939C180.702 156.665 184.23 146.269 184.23 132.994H182.73ZM172.367 162.878L171.307 161.817C164.933 168.191 155.415 171.5 142.483 171.5V173V174.5C155.902 174.5 166.306 171.061 173.428 163.939L172.367 162.878ZM142.483 173V171.5H100.79V173V174.5H142.483V173ZM100.79 173H102.29V4.29999H100.79H99.2905V173H100.79ZM137.663 72.985V74.485C143.204 74.485 147.61 73.0557 150.565 69.916L149.472 68.888L148.38 67.8599C146.194 70.183 142.727 71.485 137.663 71.485V72.985ZM149.472 68.888L150.533 69.9487C153.683 66.7984 155.069 61.7256 155.069 55.151H153.569H152.069C152.069 61.4297 150.724 65.5149 148.412 67.8273L149.472 68.888ZM153.569 55.151H155.069V45.752H153.569H152.069V55.151H153.569ZM153.569 45.752H155.069C155.069 39.5276 153.935 34.6785 151.353 31.5434L150.195 32.497L149.038 33.4506C150.954 35.7781 152.069 39.7657 152.069 45.752H153.569ZM150.195 32.497L151.387 31.5858C148.921 28.3616 145.022 26.9 140.073 26.9V28.4V29.9C144.444 29.9 147.292 31.1697 149.004 33.4082L150.195 32.497ZM140.073 28.4V26.9H127.3V28.4V29.9H140.073V28.4ZM127.3 28.4H125.8V72.985H127.3H128.8V28.4H127.3ZM127.3 72.985V74.485H137.663V72.985V71.485H127.3V72.985ZM142.483 148.9V150.4C147.383 150.4 151.309 149.131 153.943 146.308L152.846 145.285L151.75 144.262C149.885 146.259 146.903 147.4 142.483 147.4V148.9ZM152.846 145.285L153.975 146.273C156.592 143.283 157.72 138.482 157.72 132.271H156.22H154.72C154.72 138.27 153.6 142.146 151.718 144.297L152.846 145.285ZM156.22 132.271H157.72V117.57H156.22H154.72V132.271H156.22ZM156.22 117.57H157.72C157.72 109.789 156.365 103.97 153.214 100.634L152.123 101.664L151.033 102.694C153.345 105.142 154.72 109.927 154.72 117.57H156.22ZM152.123 101.664L153.271 100.698C150.292 97.1601 145.421 95.585 139.109 95.585V97.085V98.585C145.009 98.585 148.814 100.063 150.976 102.63L152.123 101.664ZM139.109 97.085V95.585H127.3V97.085V98.585H139.109V97.085ZM127.3 97.085H125.8V148.9H127.3H128.8V97.085H127.3ZM127.3 148.9V150.4H142.483V148.9V147.4H127.3V148.9ZM201.841 164.324L202.937 163.3L202.937 163.3L201.841 164.324ZM201.841 12.976L202.937 14.0003L202.937 14.0003L201.841 12.976ZM261.609 12.976L260.513 14.0003L260.513 14.0003L261.609 12.976ZM261.609 164.324L260.513 163.3L260.513 163.3L261.609 164.324ZM231.725 175.41V173.91C219.001 173.91 209.486 170.306 202.937 163.3L201.841 164.324L200.745 165.348C208.013 173.123 218.421 176.91 231.725 176.91V175.41ZM201.841 164.324L202.937 163.3C196.365 156.269 192.978 146.24 192.978 132.994H191.478H189.978C189.978 146.74 193.5 157.598 200.745 165.348L201.841 164.324ZM191.478 132.994H192.978V44.306H191.478H189.978V132.994H191.478ZM191.478 44.306H192.978C192.978 31.0604 196.365 21.0309 202.937 14.0003L201.841 12.976L200.745 11.9517C193.5 19.7024 189.978 30.5595 189.978 44.306H191.478ZM201.841 12.976L202.937 14.0003C209.486 6.99415 219.001 3.38999 231.725 3.38999V1.88999V0.389991C218.421 0.389991 208.013 4.1765 200.745 11.9517L201.841 12.976ZM231.725 1.88999V3.38999C244.449 3.38999 253.964 6.99415 260.513 14.0003L261.609 12.976L262.705 11.9517C255.437 4.1765 245.029 0.389991 231.725 0.389991V1.88999ZM261.609 12.976L260.513 14.0003C267.085 21.0309 270.472 31.0604 270.472 44.306H271.972H273.472C273.472 30.5595 269.95 19.7024 262.705 11.9517L261.609 12.976ZM271.972 44.306H270.472V132.994H271.972H273.472V44.306H271.972ZM271.972 132.994H270.472C270.472 146.24 267.085 156.269 260.513 163.3L261.609 164.324L262.705 165.348C269.95 157.598 273.472 146.74 273.472 132.994H271.972ZM261.609 164.324L260.513 163.3C253.964 170.306 244.449 173.91 231.725 173.91V175.41V176.91C245.029 176.91 255.437 173.123 262.705 165.348L261.609 164.324ZM231.725 151.31V152.81C236.619 152.81 240.535 151.315 243.184 148.108C245.788 144.956 246.962 140.393 246.962 134.681H245.462H243.962C243.962 140.055 242.846 143.807 240.871 146.197C238.942 148.533 235.989 149.81 231.725 149.81V151.31ZM245.462 134.681H246.962V42.619H245.462H243.962V134.681H245.462ZM245.462 42.619H246.962C246.962 36.9071 245.788 32.3442 243.184 29.1919C240.535 25.9848 236.619 24.49 231.725 24.49V25.99V27.49C235.989 27.49 238.942 28.7667 240.871 31.1026C242.846 33.4933 243.962 37.2449 243.962 42.619H245.462ZM231.725 25.99V24.49C226.831 24.49 222.915 25.9848 220.266 29.1919C217.662 32.3442 216.488 36.9071 216.488 42.619H217.988H219.488C219.488 37.2449 220.604 33.4933 222.579 31.1026C224.508 28.7667 227.461 27.49 231.725 27.49V25.99ZM217.988 42.619H216.488V134.681H217.988H219.488V42.619H217.988ZM217.988 134.681H216.488C216.488 140.393 217.662 144.956 220.266 148.108C222.915 151.315 226.831 152.81 231.725 152.81V151.31V149.81C227.461 149.81 224.508 148.533 222.579 146.197C220.604 143.807 219.488 140.055 219.488 134.681H217.988ZM294.238 164.565L293.13 165.576L293.136 165.582L293.142 165.588L294.238 164.565ZM284.116 4.29999V2.79999H282.616V4.29999H284.116ZM310.626 4.29999H312.126V2.79999H310.626V4.29999ZM314 147.454L312.871 148.442L312.888 148.461L312.906 148.48L314 147.454ZM334.003 147.454L332.909 146.428L332.891 146.447L332.874 146.466L334.003 147.454ZM337.618 4.29999V2.79999H336.118V4.29999H337.618ZM363.164 4.29999H364.664V2.79999H363.164V4.29999ZM353.042 164.565L354.139 165.588L354.144 165.582L354.15 165.576L353.042 164.565ZM323.64 175.41V173.91C311.071 173.91 301.72 170.383 295.335 163.542L294.238 164.565L293.142 165.588C300.252 173.207 310.502 176.91 323.64 176.91V175.41ZM294.238 164.565L295.346 163.554C288.93 156.527 285.616 146.414 285.616 132.994H284.116H282.616C282.616 146.887 286.05 157.822 293.13 165.576L294.238 164.565ZM284.116 132.994H285.616V4.29999H284.116H282.616V132.994H284.116ZM284.116 4.29999V5.79999H310.626V4.29999V2.79999H284.116V4.29999ZM310.626 4.29999H309.126V134.922H310.626H312.126V4.29999H310.626ZM310.626 134.922H309.126C309.126 140.837 310.265 145.463 312.871 148.442L314 147.454L315.129 146.466C313.237 144.304 312.126 140.575 312.126 134.922H310.626ZM314 147.454L312.906 148.48C315.663 151.421 319.472 152.81 324.122 152.81V151.31V149.81C320.096 149.81 317.158 148.629 315.094 146.428L314 147.454ZM324.122 151.31V152.81C328.767 152.81 332.525 151.422 335.132 148.442L334.003 147.454L332.874 146.466C330.983 148.628 328.153 149.81 324.122 149.81V151.31ZM334.003 147.454L335.097 148.48C337.892 145.499 339.118 140.857 339.118 134.922H337.618H336.118C336.118 140.555 334.935 144.267 332.909 146.428L334.003 147.454ZM337.618 134.922H339.118V4.29999H337.618H336.118V134.922H337.618ZM337.618 4.29999V5.79999H363.164V4.29999V2.79999H337.618V4.29999ZM363.164 4.29999H361.664V132.994H363.164H364.664V4.29999H363.164ZM363.164 132.994H361.664C361.664 146.414 358.35 156.527 351.934 163.554L353.042 164.565L354.15 165.576C361.23 157.822 364.664 146.887 364.664 132.994H363.164ZM353.042 164.565L351.946 163.542C345.56 170.383 336.209 173.91 323.64 173.91V175.41V176.91C336.778 176.91 347.028 173.207 354.139 165.588L353.042 164.565ZM397.951 28.4H399.451V26.9H397.951V28.4ZM370.236 28.4H368.736V29.9H370.236V28.4ZM370.236 4.29999V2.79999H368.736V4.29999H370.236ZM452.176 4.29999H453.676V2.79999H452.176V4.29999ZM452.176 28.4V29.9H453.676V28.4H452.176ZM424.461 28.4V26.9H422.961V28.4H424.461ZM424.461 173V174.5H425.961V173H424.461ZM397.951 173H396.451V174.5H397.951V173ZM397.951 28.4V26.9H370.236V28.4V29.9H397.951V28.4ZM370.236 28.4H371.736V4.29999H370.236H368.736V28.4H370.236ZM370.236 4.29999V5.79999H452.176V4.29999V2.79999H370.236V4.29999ZM452.176 4.29999H450.676V28.4H452.176H453.676V4.29999H452.176ZM452.176 28.4V26.9H424.461V28.4V29.9H452.176V28.4ZM424.461 28.4H422.961V173H424.461H425.961V28.4H424.461ZM424.461 173V171.5H397.951V173V174.5H424.461V173ZM397.951 173H399.451V28.4H397.951H396.451V173H397.951Z" fill="#1061AB" mask="url(#path-1-outside-1_1_2491)"/>
</svg>
