<svg width="160" height="34" viewBox="0 0 160 34" fill="none" xmlns="http://www.w3.org/2000/svg">
<path d="M27.52 7.72C27.92 7.72 28.4667 7.90667 29.16 8.28C29.8533 8.62667 30.3067 8.96 30.52 9.28C30.7333 9.6 30.84 9.89333 30.84 10.16C30.84 10.4 30.76 10.8533 30.6 11.52C30.36 12.5333 29.64 13.7733 28.44 15.24C26.4667 17.72 25.1467 19.5733 24.48 20.8L24.04 21.72L24.88 21.56C25.4667 21.4267 26 21.24 26.48 21C26.96 20.7333 27.32 20.6 27.56 20.6C27.8 20.6 27.8533 20.2267 27.72 19.48L27.52 18.32L28.44 18.56C31.1867 19.1467 32.5867 20.4 32.64 22.32C32.6667 22.88 32.64 23.28 32.56 23.52C32.48 23.7333 32.3067 23.9467 32.04 24.16C31.1333 24.88 30.12 24.92 29 24.28C28.6267 24.0667 28.3067 23.96 28.04 23.96C27.8 23.96 27.2533 24.0667 26.4 24.28C25.12 24.6 24.0267 25.0533 23.12 25.64C22.32 26.2 21.4 26.7333 20.36 27.24C19.32 27.7467 18.6667 28 18.4 28C17.9467 28 17.5867 27.8 17.32 27.4C17.08 26.9733 16.96 26.4 16.96 25.68C16.96 24.7733 17.0667 24.1733 17.28 23.88C17.4933 23.5867 17.9867 23.4133 18.76 23.36C19.08 23.36 20.5333 21.4133 23.12 17.52C25.7333 13.6267 26.9467 11.5867 26.76 11.4C26.6 11.24 26.3067 11.32 25.88 11.64C25.4533 11.96 25.0533 12.36 24.68 12.84C24.0133 13.8267 23.3733 14.64 22.76 15.28C22.1733 15.8933 21.7733 16.2 21.56 16.2C21.0267 16.2 20.5467 15.6933 20.12 14.68C19.72 13.64 19.64 12.8267 19.88 12.24C20.12 11.8133 20.1733 11.4133 20.04 11.04C19.9333 10.6667 19.96 10.4667 20.12 10.44C20.3067 10.4133 20.64 10.36 21.12 10.28C21.6267 10.2 22.0667 10.2667 22.44 10.48C22.68 10.5867 22.92 10.6 23.16 10.52C23.4 10.4133 23.8267 10.1333 24.44 9.68C25.4 8.98667 26.0933 8.49333 26.52 8.2C26.9733 7.88 27.3067 7.72 27.52 7.72ZM11.96 1.92C12.0133 1.78666 12.1467 1.8 12.36 1.96C12.6 2.12 12.8667 2.37333 13.16 2.72C13.48 3.06667 13.8 3.46667 14.12 3.92C14.6 4.64 14.8533 5.42666 14.88 6.28L14.92 7.56L16.4 7.76C17.1467 7.81333 17.6533 7.96 17.92 8.2C18.1867 8.41333 18.4267 8.86667 18.64 9.56C18.7733 9.98666 18.7467 10.24 18.56 10.32C18.4 10.3733 17.96 10.36 17.24 10.28C16.4133 10.2 15.6533 10.2933 14.96 10.56L14 10.96V13.56C14.0267 15.1333 14.1333 15.9467 14.32 16C14.3467 16 14.4267 15.96 14.56 15.88C14.88 15.6933 15.04 15.52 15.04 15.36C15.04 15.2 15.12 15.12 15.28 15.12C15.68 15.12 15.5467 15.5867 14.88 16.52C14.72 16.7333 14.5467 16.9733 14.36 17.24C13.6133 18.28 13.16 18.9867 13 19.36C12.8667 19.7067 12.7733 21.8933 12.72 25.92C12.6667 29.8667 12.4933 32 12.2 32.32C12.0667 32.4267 11.8533 32.4 11.56 32.24C11.2667 32.0533 11.04 31.8133 10.88 31.52C10.1867 30.1867 9.84 29.28 9.84 28.8C9.84 28.48 9.68 28.04 9.36 27.48C9.06667 26.92 9.01333 26.5733 9.2 26.44C9.30667 26.3067 9.48 26.4133 9.72 26.76C9.98667 27.08 10.1467 27.2133 10.2 27.16C10.28 27.08 10.3867 26.3467 10.52 24.96L10.68 22.92L10 23.72C9.57333 24.2267 9.26667 24.7733 9.08 25.36C8.97333 25.8667 8.70667 26.2 8.28 26.36C7.88 26.52 7.48 26.4933 7.08 26.28C6.70667 26.04 6.50667 25.68 6.48 25.2C6.4 24.6667 6.30667 24.3333 6.2 24.2C5.96 23.96 5.90667 23.56 6.04 23C6.2 22.44 6.49333 21.96 6.92 21.56C7.34667 21.1333 8.12 19.8533 9.24 17.72C10.36 15.5867 10.92 14.3067 10.92 13.88C10.92 13.1067 10 13.5733 8.16 15.28C7.22667 16.1867 6.6 16.7333 6.28 16.92C5.98667 17.1067 5.53333 17.1733 4.92 17.12C4.01333 17.12 3.2 16.88 2.48 16.4C1.12 15.52 0.986667 14.9333 2.08 14.64C2.88 14.4533 4.64 13.4933 7.36 11.76C10.08 10 11.4933 8.92 11.6 8.52C11.7333 8.2 11.8 7.05333 11.8 5.08C11.8 3.10667 11.8533 2.05333 11.96 1.92ZM60.1356 5.64C60.429 5.58667 60.6156 5.57333 60.6956 5.6C60.8023 5.62667 61.0423 5.72 61.4156 5.88C61.789 6.04 62.2423 6.14667 62.7756 6.2C63.2823 6.25333 63.629 6.37333 63.8156 6.56C64.029 6.74667 64.1356 7.04 64.1356 7.44C64.1356 7.73333 64.189 7.90667 64.2956 7.96C64.429 8.01333 64.6956 8.02667 65.0956 8C68.589 7.73333 70.669 7.77333 71.3356 8.12C71.709 8.36 71.8956 8.72 71.8956 9.2C71.9223 9.65333 71.7756 10.1067 71.4556 10.56C71.109 11.0133 70.869 11.5733 70.7356 12.24C70.629 12.88 70.2556 13.6533 69.6156 14.56C69.0023 15.44 68.6956 16.1067 68.6956 16.56C68.6956 17.0133 68.4823 17.3333 68.0556 17.52C67.6556 17.7067 67.2823 18.0933 66.9356 18.68C66.7223 19.08 66.5223 19.3067 66.3356 19.36C66.1756 19.4133 65.8023 19.4133 65.2156 19.36C64.4156 19.28 63.9756 19.2933 63.8956 19.4C63.8156 19.48 63.909 19.8 64.1756 20.36C64.469 20.92 64.6023 21.5067 64.5756 22.12C64.549 22.5467 64.5756 22.8 64.6556 22.88C64.7356 22.9333 64.9623 22.9067 65.3356 22.8C65.8156 22.6933 66.349 22.52 66.9356 22.28C68.0556 21.8 69.2423 21.76 70.4956 22.16C71.7756 22.5333 72.7223 23.2267 73.3356 24.24C74.2423 25.7067 74.2556 26.92 73.3756 27.88C72.4956 28.8133 70.8423 29.3467 68.4156 29.48L66.0556 29.56L67.2156 28.52C68.6023 27.2667 69.349 25.9467 69.4556 24.56C69.509 23.5467 69.1623 23.0533 68.4156 23.08C68.229 23.08 68.0156 23.12 67.7756 23.2C65.589 23.92 64.4023 24.4133 64.2156 24.68C64.0823 24.92 64.0823 25.4 64.2156 26.12C64.349 27.1333 64.4156 28.4133 64.4156 29.96C64.4423 31.48 64.3756 32.32 64.2156 32.48C63.949 32.8 63.5356 32.88 62.9756 32.72C62.4156 32.5333 61.589 32.0267 60.4956 31.2C59.029 30.1067 58.229 29.4667 58.0956 29.28C57.9356 29.0133 57.6423 28.9333 57.2156 29.04C56.8156 29.1467 56.4023 29.4133 55.9756 29.84C54.429 31.3067 53.0556 30.88 51.8556 28.56C51.2156 27.2533 51.2823 26.2267 52.0556 25.48L52.7756 24.84L54.5756 25.44C55.5356 25.7867 56.2423 25.9333 56.6956 25.88C57.149 25.8 58.0556 25.4533 59.4156 24.84L61.2156 24L61.4156 22.28C61.549 21.08 61.5623 20.4267 61.4556 20.32C61.3756 20.2133 60.909 20.2667 60.0556 20.48C59.2023 20.6933 58.549 20.7333 58.0956 20.6C57.8023 20.5467 57.6156 20.4533 57.5356 20.32C57.4823 20.16 57.469 19.8667 57.4956 19.44C57.5223 18.96 57.2956 18.16 56.8156 17.04C56.3623 15.8933 56.0023 15.32 55.7356 15.32C55.629 15.32 55.4023 15.56 55.0556 16.04C54.7356 16.52 54.1356 17.2933 53.2556 18.36C52.3756 19.4267 51.709 20.3867 51.2556 21.24C50.5623 22.5733 49.4156 24.2133 47.8156 26.16C46.2423 28.08 45.2423 29.04 44.8156 29.04C44.6556 29.04 44.9756 28.5067 45.7756 27.44C46.5756 26.3733 47.189 25.44 47.6156 24.64C48.069 23.8133 48.6556 22.8133 49.3756 21.64C50.0956 20.44 50.669 19.3867 51.0956 18.48C51.5223 17.5733 51.9623 16.84 52.4156 16.28C53.109 15.2933 53.7756 14.04 54.4156 12.52C55.0823 11 55.4956 9.72 55.6556 8.68C55.789 7.98667 55.909 7.64 56.0156 7.64C56.2023 7.64 56.469 7.92 56.8156 8.48C57.189 9.01333 57.429 9.49333 57.5356 9.92C57.6423 10.2667 57.7623 10.4933 57.8956 10.6C58.029 10.68 58.2023 10.6533 58.4156 10.52C58.6556 10.3867 58.9623 10.12 59.3356 9.72C59.869 9.13333 60.2023 8.53333 60.3356 7.92C60.469 7.30667 60.389 6.85333 60.0956 6.56C59.509 6.10667 59.5223 5.8 60.1356 5.64ZM62.8956 8.84C62.9223 8.81333 62.909 8.8 62.8556 8.8C62.7756 8.74667 62.6823 8.72 62.5756 8.72C62.2823 8.72 62.0156 8.88 61.7756 9.2C61.589 9.41333 61.5356 9.52 61.6156 9.52C61.669 9.52 61.829 9.44 62.0956 9.28C62.549 9.04 62.8156 8.89333 62.8956 8.84ZM68.4956 9.76C68.3356 9.52 67.589 9.53333 66.2556 9.8C65.7756 9.85333 65.2023 10.0933 64.5356 10.52C63.2556 11.3467 61.549 11.76 59.4156 11.76C58.3223 11.76 57.6956 11.8533 57.5356 12.04C57.4023 12.2 57.589 12.5867 58.0956 13.2L58.7356 14L60.4156 13.56C61.509 13.2933 62.4423 12.9733 63.2156 12.6C63.8556 12.3067 64.629 12.1333 65.5356 12.08C66.469 12 67.0156 12.08 67.1756 12.32C67.4956 12.8533 67.8156 12.72 68.1356 11.92C68.2156 11.7333 68.269 11.52 68.2956 11.28C68.509 10.4 68.5756 9.89333 68.4956 9.76ZM65.6556 13.88C65.0423 14.1733 64.4823 14.36 63.9756 14.44C63.469 14.52 62.6556 14.5867 61.5356 14.64C60.469 14.64 59.7623 14.6667 59.4156 14.72C59.0956 14.7733 58.9223 14.8933 58.8956 15.08C58.8156 15.4 58.989 15.7333 59.4156 16.08C59.869 16.4 60.2023 16.7733 60.4156 17.2C60.6556 17.6 60.9223 17.7067 61.2156 17.52C61.9623 17.1467 62.8423 16.7333 63.8556 16.28C64.8956 15.8267 65.4956 15.6 65.6556 15.6C65.8423 15.6 66.1756 15.24 66.6556 14.52C67.1356 13.7733 67.3356 13.3733 67.2556 13.32C67.2023 13.24 66.669 13.4267 65.6556 13.88ZM61.2556 26.52C61.2556 25.96 60.9356 25.9067 60.2956 26.36C59.9756 26.6 59.869 26.8267 59.9756 27.04C60.1356 27.2533 60.389 27.2933 60.7356 27.16C61.0823 27.0267 61.2556 26.8133 61.2556 26.52ZM65.6156 1.36C66.549 1.33333 67.2823 1.46666 67.8156 1.76C68.349 2.02667 68.6423 2.4 68.6956 2.88C68.6956 3.14667 67.8023 3.28 66.0156 3.28C64.4156 3.28 63.0823 3.41333 62.0156 3.68C60.949 3.92 59.669 4.42666 58.1756 5.2C56.8956 5.84 56.0023 6.18667 55.4956 6.24C54.989 6.26667 54.549 6.04 54.1756 5.56C53.6423 4.86667 53.5223 4.52 53.8156 4.52C53.869 4.52 53.949 4.52 54.0556 4.52C54.4023 4.6 56.1756 4.09333 59.3756 3C62.5756 1.90667 64.6556 1.36 65.6156 1.36ZM101.591 19.36C101.618 18.88 101.778 18.64 102.071 18.64C102.391 18.64 102.911 18.88 103.631 19.36C104.325 19.8933 104.698 20.4267 104.751 20.96C104.831 21.4667 104.578 22.1733 103.991 23.08C102.951 24.7067 102.418 26.2 102.391 27.56C102.391 27.96 102.445 28.2267 102.551 28.36C102.658 28.4667 102.938 28.5867 103.391 28.72C104.938 29.0933 106.298 29.2267 107.471 29.12C108.645 28.9867 109.938 28.5733 111.351 27.88C112.445 27.2933 113.138 26.84 113.431 26.52C113.725 26.1733 113.951 25.5067 114.111 24.52C114.298 23.3733 114.525 22.4933 114.791 21.88L115.231 20.92V22C115.231 22.5067 115.378 23.0667 115.671 23.68C115.965 24.2933 116.231 24.6 116.471 24.6C116.605 24.6 116.978 24.92 117.591 25.56C117.991 25.9867 118.218 26.32 118.271 26.56C118.351 26.7733 118.351 27.1067 118.271 27.56C118.085 28.3867 117.298 29.32 115.911 30.36C114.551 31.3733 113.058 32.16 111.431 32.72C110.498 33.0133 109.818 33.1867 109.391 33.24C108.965 33.2933 108.245 33.2533 107.231 33.12C105.285 32.88 103.151 32.3333 100.831 31.48C99.7379 31.08 99.2046 30.04 99.2313 28.36C99.2579 26.6533 99.8179 24.4667 100.911 21.8C101.365 20.7067 101.591 19.8933 101.591 19.36ZM94.9913 1.16C94.9913 0.999998 95.1379 0.893332 95.4313 0.839999C95.7513 0.786665 96.1379 0.813331 96.5913 0.919998C97.0446 0.999999 97.4713 1.14667 97.8713 1.36C99.3113 2.08 100.205 2.61333 100.551 2.96C100.925 3.28 101.165 3.82667 101.271 4.6C101.351 5.08 101.538 5.42667 101.831 5.64C102.151 5.85333 102.418 5.82666 102.631 5.56C102.738 5.4 102.991 5.16 103.391 4.84C103.658 4.62667 103.885 4.50667 104.071 4.48C104.258 4.45333 104.658 4.56 105.271 4.8C106.445 5.17333 107.111 5.57333 107.271 6C107.458 6.42667 107.111 6.81333 106.231 7.16C105.458 7.53333 104.258 8.38667 102.631 9.72C101.005 11.0267 100.191 11.8133 100.191 12.08C100.191 12.2667 100.525 12.3067 101.191 12.2C101.885 12.0933 102.765 12.1467 103.831 12.36C104.925 12.5733 105.725 12.9867 106.231 13.6C106.631 14.08 106.871 14.5467 106.951 15C107.058 15.4533 106.978 15.8133 106.711 16.08C106.498 16.2933 105.925 16.4 104.991 16.4C103.765 16.4 102.378 16.6933 100.831 17.28C99.3113 17.84 98.5513 18.3333 98.5513 18.76C98.5513 18.9733 98.8846 19.2533 99.5513 19.6C100.245 19.92 100.618 20.28 100.671 20.68C100.751 21.0267 100.418 21.68 99.6713 22.64C98.9246 23.5733 98.2846 24.1867 97.7513 24.48C97.2179 24.7467 96.3646 25.48 95.1913 26.68C94.0179 27.8533 93.1913 28.5067 92.7113 28.64C92.2313 28.7467 91.9913 28.8933 91.9913 29.08C91.9913 29.16 91.9779 29.2133 91.9513 29.24C91.9246 29.2667 91.8713 29.2533 91.7913 29.2C91.7113 29.1467 91.0313 29.7467 89.7513 31C87.7513 32.92 86.7646 33.6667 86.7913 33.24C86.7913 33.2133 86.7913 33.1867 86.7913 33.16C86.8446 32.9733 87.5246 32.1733 88.8313 30.76C90.1379 29.32 91.4446 27.9333 92.7513 26.6C94.6979 24.6 96.0446 23.08 96.7913 22.04C97.5646 20.9733 97.8979 20.1733 97.7913 19.64C97.7379 19.2933 97.6713 19.12 97.5913 19.12C97.5379 19.12 96.8179 19.4 95.4313 19.96C93.1913 20.84 91.8846 21.0267 91.5113 20.52C91.4313 20.3333 91.4446 19.8667 91.5513 19.12C91.6846 18.3733 92.2713 17.48 93.3113 16.44C94.3513 15.3733 95.0179 14.6267 95.3113 14.2C95.6313 13.7467 96.4313 12.8667 97.7113 11.56C98.9913 10.2533 99.6313 9.54667 99.6313 9.44C99.6313 9.33333 99.7646 9.14666 100.031 8.88C100.325 8.61333 100.471 8.33333 100.471 8.04C100.471 7.37333 99.1646 7.94666 96.5513 9.76C95.5913 10.4 94.5913 11.1333 93.5513 11.96C92.3246 12.9467 91.2846 13.6133 90.4313 13.96C89.6046 14.3067 88.6179 14.4933 87.4713 14.52C86.0046 14.6 85.2979 14.48 85.3513 14.16C85.4313 13.9467 85.9513 13.6933 86.9113 13.4C87.9779 13.08 90.0446 12.0933 93.1113 10.44C96.2046 8.78667 97.7513 7.84 97.7513 7.6C97.7513 7.41333 97.5113 7.24 97.0313 7.08C96.5779 6.92 96.1913 6.88 95.8713 6.96L95.1513 7.12L95.9113 6.28C96.3913 5.72 96.6179 5.18667 96.5913 4.68C96.5913 4.14667 96.3246 3.49333 95.7913 2.72C95.2579 1.89333 94.9913 1.37333 94.9913 1.16ZM143.807 6.12C145.194 5.48 146.047 5.05333 146.367 4.84C146.687 4.6 146.847 4.29333 146.847 3.92C146.847 2.88 147.327 2.70667 148.287 3.4C148.66 3.69333 148.994 3.86667 149.287 3.92C149.58 3.97333 150.1 3.97333 150.847 3.92C151.594 3.84 152.167 3.84 152.567 3.92C152.967 3.97333 153.567 4.17333 154.367 4.52C156.287 5.4 156.834 6.32 156.007 7.28C155.714 7.62667 155.38 7.8 155.007 7.8C154.634 7.8 154.06 7.62667 153.287 7.28C152.38 6.88 151.767 6.72 151.447 6.8C151.154 6.85333 150.847 7.2 150.527 7.84C150.234 8.56 149.727 9.18666 149.007 9.72C148.34 10.2 147.38 11.1067 146.127 12.44C144.874 13.7467 144.247 14.5067 144.247 14.72C144.247 14.9067 144.367 15.04 144.607 15.12C144.874 15.1733 145.247 15.16 145.727 15.08C146.234 14.9733 146.807 14.8 147.447 14.56C149.634 13.8133 151.727 13.2933 153.727 13C155.754 12.68 157.247 12.64 158.207 12.88C158.607 13.0133 158.954 13.3867 159.247 14C159.46 14.4267 159.567 14.72 159.567 14.88C159.567 15.04 159.46 15.2533 159.247 15.52C159.034 15.76 158.727 15.92 158.327 16C157.927 16.0533 156.967 16.0933 155.447 16.12C154.14 16.1467 152.927 16.2533 151.807 16.44C150.687 16.6 149.954 16.7867 149.607 17C149.554 17.0533 150.1 18.64 151.247 21.76C151.567 22.7733 151.727 23.88 151.727 25.08C151.754 26.2533 151.487 27.3733 150.927 28.44C150.367 29.5067 149.62 30.32 148.687 30.88C147.86 31.4133 146.807 31.7733 145.527 31.96C144.274 32.1467 143.207 32.12 142.327 31.88C141.554 31.6667 141.02 31.4267 140.727 31.16C140.434 30.8933 140.287 30.4933 140.287 29.96C140.287 28.9467 139.74 28.72 138.647 29.28C138.06 29.5733 137.26 30.1067 136.247 30.88C135.26 31.6267 134.714 31.96 134.607 31.88C134.527 31.7733 134.967 31.2267 135.927 30.24C138.167 27.8933 139.487 25.9733 139.887 24.48C140.127 23.52 140.207 23.0133 140.127 22.96C140.074 22.88 140.18 22.48 140.447 21.76C140.714 21.0133 140.847 20.5867 140.847 20.48C140.847 20.4267 140.687 20.5067 140.367 20.72C140.047 20.9333 139.7 21.1867 139.327 21.48C138.954 21.7467 138.727 21.9333 138.647 22.04C138.407 22.28 137.86 22.5867 137.007 22.96C136.154 23.3333 135.38 23.5867 134.687 23.72C133.674 23.9333 132.7 23.9867 131.767 23.88C130.86 23.7733 130.154 23.5333 129.647 23.16L128.967 22.6L130.287 22.04C131.78 21.4 134.914 19.92 139.687 17.6C140.247 17.3067 140.567 17.0933 140.647 16.96C140.754 16.8 140.767 16.44 140.687 15.88C140.58 15.1333 140.607 14.64 140.767 14.4C140.954 14.1333 141.287 14.1067 141.767 14.32C142.06 14.48 142.247 14.56 142.327 14.56C142.407 14.5333 142.447 14.44 142.447 14.28C142.447 14.1467 142.407 14.04 142.327 13.96C142.247 13.88 142.167 13.84 142.087 13.84C141.794 13.84 141.274 13.5067 140.527 12.84C139.967 12.3333 139.58 12.0533 139.367 12C139.18 11.92 138.794 11.9733 138.207 12.16C137.327 12.3733 136.727 12.4667 136.407 12.44C136.087 12.4133 135.74 12.2133 135.367 11.84C134.94 11.3333 134.794 10.9333 134.927 10.64C135.06 10.32 135.514 10.0133 136.287 9.72C137.167 9.37333 137.687 9.09333 137.847 8.88C138.007 8.64 138.02 7.77333 137.887 6.28C137.78 4.76 137.794 3.68 137.927 3.04C138.06 2.4 138.194 2.08 138.327 2.08C138.46 2.08 138.78 2.96 139.287 4.72C139.82 6.45333 140.207 7.37333 140.447 7.48C140.714 7.56 141.834 7.10666 143.807 6.12ZM147.127 6.6C147.127 6.2 146.66 6.36 145.727 7.08C145.114 7.56 144.634 8.05333 144.287 8.56C143.514 9.70667 143.354 10.4133 143.807 10.68C143.994 10.8133 144.087 11.0533 144.087 11.4C144.087 11.7467 144.18 11.92 144.367 11.92C144.554 11.92 144.647 11.8267 144.647 11.64C144.647 11.4533 144.82 11.2 145.167 10.88C145.407 10.6667 145.794 9.97333 146.327 8.8C146.86 7.6 147.127 6.86667 147.127 6.6ZM143.807 19.52C143.807 19.3867 143.58 19.32 143.127 19.32C142.674 19.32 142.26 19.6133 141.887 20.2C141.727 20.52 141.594 20.8667 141.487 21.24C141.38 21.6133 141.34 21.9333 141.367 22.2C141.42 22.4667 141.514 22.6 141.647 22.6C141.78 22.6 142.167 22.1467 142.807 21.24C143.474 20.3067 143.807 19.7333 143.807 19.52ZM148.487 23.28C148.22 22.9867 147.954 22.88 147.687 22.96C147.447 23.0133 146.954 23.3067 146.207 23.84C145.354 24.48 144.847 24.8 144.687 24.8C144.474 24.8 144.087 25.0933 143.527 25.68C142.994 26.24 142.727 26.6267 142.727 26.84C142.727 27.1333 142.86 27.5867 143.127 28.2C143.34 28.76 143.634 29.08 144.007 29.16C144.407 29.2133 145.034 29.0533 145.887 28.68C146.82 28.2533 147.487 27.8 147.887 27.32C148.287 26.8133 148.527 26.12 148.607 25.24C148.767 24.2267 148.727 23.5733 148.487 23.28Z" fill="black"/>
</svg>
