<svg width="260" height="51" viewBox="0 0 260 51" fill="none" xmlns="http://www.w3.org/2000/svg">
<path d="M4.56 6.96C5.30667 7.072 6.22133 7.16533 7.304 7.24C8.38667 7.31467 9.35733 7.352 10.216 7.352H40.568C41.4267 7.352 42.3413 7.31467 43.312 7.24C44.2827 7.16533 45.1973 7.072 46.056 6.96V16.256C45.16 16.1813 44.2267 16.1253 43.256 16.088C42.2853 16.0133 41.3893 15.976 40.568 15.976H10.216C9.35733 15.976 8.38667 16.0133 7.304 16.088C6.22133 16.1253 5.30667 16.1813 4.56 16.256V6.96ZM20.072 42.352V12.112H29.592V42.352H20.072ZM0.864 36.696C1.79733 36.8453 2.768 36.976 3.776 37.088C4.82133 37.1627 5.792 37.2 6.688 37.2H43.592C44.6747 37.2 45.6827 37.144 46.616 37.032C47.5867 36.92 48.4267 36.808 49.136 36.696V46.496C48.3147 46.384 47.3627 46.3093 46.28 46.272C45.1973 46.2347 44.3013 46.216 43.592 46.216H6.688C5.82933 46.216 4.87733 46.2347 3.832 46.272C2.824 46.3093 1.83467 46.384 0.864 46.496V36.696ZM63.024 3.544C63.9947 4.216 65.1333 5.056 66.44 6.064C67.7467 7.03466 69.0907 8.09866 70.472 9.256C71.8907 10.376 73.216 11.496 74.448 12.616C75.7173 13.6987 76.7627 14.688 77.584 15.584L70.64 22.696C69.8933 21.8747 68.9413 20.9227 67.784 19.84C66.6267 18.72 65.376 17.5813 64.032 16.424C62.688 15.2293 61.3627 14.1093 60.056 13.064C58.7493 12.0187 57.592 11.1413 56.584 10.432L63.024 3.544ZM54.736 40.728C57.4987 40.3547 60.112 39.832 62.576 39.16C65.0773 38.488 67.4293 37.704 69.632 36.808C71.8347 35.912 73.8507 34.9413 75.68 33.896C79.04 31.9547 82.1013 29.752 84.864 27.288C87.6267 24.7867 90.0347 22.192 92.088 19.504C94.1787 16.7787 95.84 14.1093 97.072 11.496L102.336 21.072C100.843 23.7227 98.9947 26.336 96.792 28.912C94.5893 31.4507 92.1067 33.8587 89.344 36.136C86.6187 38.4133 83.688 40.4667 80.552 42.296C78.648 43.416 76.5947 44.48 74.392 45.488C72.1893 46.4587 69.912 47.2987 67.56 48.008C65.208 48.7547 62.856 49.3147 60.504 49.688L54.736 40.728ZM142.432 3.32C142.992 4.14133 143.571 5.07467 144.168 6.12C144.803 7.128 145.4 8.136 145.96 9.144C146.557 10.152 147.061 11.0853 147.472 11.944L141.704 14.408C141.107 13.1013 140.565 12 140.08 11.104C139.632 10.1707 139.165 9.27467 138.68 8.416C138.195 7.55733 137.579 6.624 136.832 5.616L142.432 3.32ZM150.384 0.575997C151.019 1.36 151.635 2.256 152.232 3.264C152.867 4.23466 153.464 5.20533 154.024 6.176C154.621 7.14667 155.144 8.04267 155.592 8.864L149.88 11.384C149.245 10.0773 148.667 8.99467 148.144 8.136C147.621 7.24 147.099 6.4 146.576 5.616C146.053 4.79466 145.419 3.89866 144.672 2.928L150.384 0.575997ZM117.904 2.088C118.875 2.61066 119.939 3.22666 121.096 3.936C122.291 4.64533 123.485 5.37333 124.68 6.12C125.912 6.86666 127.069 7.59466 128.152 8.304C129.272 8.976 130.224 9.592 131.008 10.152L125.968 17.656C125.147 17.096 124.176 16.4613 123.056 15.752C121.973 15.0427 120.835 14.3333 119.64 13.624C118.483 12.8773 117.325 12.168 116.168 11.496C115.011 10.7867 113.947 10.152 112.976 9.592L117.904 2.088ZM106.424 41.68C108.552 41.3067 110.68 40.8587 112.808 40.336C114.973 39.8133 117.12 39.16 119.248 38.376C121.413 37.592 123.541 36.64 125.632 35.52C128.843 33.728 131.848 31.6933 134.648 29.416C137.448 27.1387 139.968 24.712 142.208 22.136C144.448 19.56 146.296 16.928 147.752 14.24L152.96 23.536C150.272 27.4933 146.987 31.1893 143.104 34.624C139.221 38.0587 134.947 41.1013 130.28 43.752C128.376 44.7973 126.267 45.8053 123.952 46.776C121.675 47.7093 119.435 48.512 117.232 49.184C115.029 49.8933 113.125 50.3787 111.52 50.64L106.424 41.68ZM109.168 14.968C110.176 15.4907 111.277 16.1067 112.472 16.816C113.667 17.5253 114.861 18.2533 116.056 19C117.251 19.7467 118.389 20.4747 119.472 21.184C120.555 21.856 121.488 22.472 122.272 23.032L117.288 30.648C116.429 30.0507 115.459 29.3973 114.376 28.688C113.293 27.9787 112.155 27.2507 110.96 26.504C109.803 25.72 108.645 24.992 107.488 24.32C106.331 23.6107 105.248 22.9947 104.24 22.472L109.168 14.968ZM162.48 8.08C163.563 8.22933 164.776 8.34133 166.12 8.416C167.501 8.45333 168.677 8.472 169.648 8.472C170.544 8.472 171.645 8.472 172.952 8.472C174.296 8.472 175.715 8.472 177.208 8.472C178.739 8.472 180.288 8.472 181.856 8.472C183.424 8.472 184.899 8.472 186.28 8.472C187.699 8.472 188.931 8.472 189.976 8.472C191.059 8.472 191.861 8.472 192.384 8.472C193.579 8.472 194.773 8.43466 195.968 8.36C197.163 8.28533 198.171 8.192 198.992 8.08V17.936C198.171 17.8987 197.107 17.8613 195.8 17.824C194.531 17.7493 193.392 17.712 192.384 17.712C191.861 17.712 191.021 17.712 189.864 17.712C188.744 17.712 187.419 17.712 185.888 17.712C184.357 17.712 182.771 17.712 181.128 17.712C179.485 17.712 177.899 17.712 176.368 17.712C174.837 17.712 173.475 17.712 172.28 17.712C171.123 17.712 170.264 17.712 169.704 17.712C168.584 17.712 167.352 17.7307 166.008 17.768C164.664 17.8053 163.488 17.8613 162.48 17.936V8.08ZM157.832 35.296C159.027 35.3707 160.315 35.464 161.696 35.576C163.077 35.6507 164.347 35.688 165.504 35.688C166.027 35.688 166.923 35.688 168.192 35.688C169.461 35.688 170.955 35.688 172.672 35.688C174.427 35.688 176.293 35.688 178.272 35.688C180.251 35.688 182.211 35.688 184.152 35.688C186.131 35.688 187.979 35.688 189.696 35.688C191.451 35.688 192.944 35.688 194.176 35.688C195.445 35.688 196.341 35.688 196.864 35.688C197.872 35.688 198.992 35.6507 200.224 35.576C201.456 35.5013 202.595 35.408 203.64 35.296V45.656C202.557 45.544 201.363 45.4507 200.056 45.376C198.787 45.3013 197.723 45.264 196.864 45.264C196.341 45.264 195.445 45.264 194.176 45.264C192.944 45.264 191.451 45.264 189.696 45.264C187.979 45.264 186.131 45.264 184.152 45.264C182.211 45.264 180.251 45.264 178.272 45.264C176.293 45.264 174.427 45.264 172.672 45.264C170.955 45.264 169.461 45.264 168.192 45.264C166.923 45.264 166.027 45.264 165.504 45.264C164.347 45.264 163.059 45.3013 161.64 45.376C160.221 45.4507 158.952 45.544 157.832 45.656V35.296ZM259.528 9.088C259.192 9.49867 258.763 10.0587 258.24 10.768C257.717 11.44 257.307 12 257.008 12.448C256.075 14.016 254.88 15.7707 253.424 17.712C252.005 19.616 250.456 21.464 248.776 23.256C247.133 25.048 245.472 26.56 243.792 27.792L236.792 22.192C237.837 21.52 238.845 20.792 239.816 20.008C240.787 19.1867 241.683 18.3467 242.504 17.488C243.325 16.6293 244.035 15.808 244.632 15.024C245.267 14.24 245.733 13.5493 246.032 12.952C245.584 12.952 244.819 12.952 243.736 12.952C242.691 12.952 241.421 12.952 239.928 12.952C238.435 12.952 236.829 12.952 235.112 12.952C233.395 12.952 231.677 12.952 229.96 12.952C228.243 12.952 226.6 12.952 225.032 12.952C223.501 12.952 222.139 12.952 220.944 12.952C219.787 12.952 218.928 12.952 218.368 12.952C217.136 12.952 215.997 12.9893 214.952 13.064C213.944 13.1387 212.712 13.2507 211.256 13.4V4.048C212.413 4.19733 213.571 4.34667 214.728 4.496C215.923 4.608 217.136 4.664 218.368 4.664C218.928 4.664 219.824 4.664 221.056 4.664C222.288 4.664 223.725 4.664 225.368 4.664C227.011 4.664 228.747 4.664 230.576 4.664C232.443 4.664 234.291 4.664 236.12 4.664C237.949 4.664 239.648 4.664 241.216 4.664C242.784 4.664 244.109 4.664 245.192 4.664C246.312 4.664 247.059 4.664 247.432 4.664C248.067 4.664 248.832 4.64533 249.728 4.608C250.624 4.57067 251.483 4.51467 252.304 4.44C253.163 4.328 253.779 4.216 254.152 4.104L259.528 9.088ZM236.456 16.704C236.456 19.3173 236.419 21.8933 236.344 24.432C236.269 26.9707 235.989 29.4347 235.504 31.824C235.056 34.2133 234.291 36.528 233.208 38.768C232.125 40.9707 230.595 43.08 228.616 45.096C226.675 47.112 224.117 48.9973 220.944 50.752L213.048 44.312C214.019 43.976 215.027 43.5467 216.072 43.024C217.155 42.5013 218.275 41.792 219.432 40.896C221 39.7013 222.269 38.488 223.24 37.256C224.248 36.024 225.013 34.6987 225.536 33.28C226.096 31.824 226.488 30.2 226.712 28.408C226.936 26.616 227.048 24.5813 227.048 22.304C227.048 21.3333 227.011 20.4187 226.936 19.56C226.899 18.664 226.787 17.712 226.6 16.704H236.456Z" fill="#1061AB"/>
<path d="M4.56 6.96C5.30667 7.072 6.22133 7.16533 7.304 7.24C8.38667 7.31467 9.35733 7.352 10.216 7.352H40.568C41.4267 7.352 42.3413 7.31467 43.312 7.24C44.2827 7.16533 45.1973 7.072 46.056 6.96V16.256C45.16 16.1813 44.2267 16.1253 43.256 16.088C42.2853 16.0133 41.3893 15.976 40.568 15.976H10.216C9.35733 15.976 8.38667 16.0133 7.304 16.088C6.22133 16.1253 5.30667 16.1813 4.56 16.256V6.96ZM20.072 42.352V12.112H29.592V42.352H20.072ZM0.864 36.696C1.79733 36.8453 2.768 36.976 3.776 37.088C4.82133 37.1627 5.792 37.2 6.688 37.2H43.592C44.6747 37.2 45.6827 37.144 46.616 37.032C47.5867 36.92 48.4267 36.808 49.136 36.696V46.496C48.3147 46.384 47.3627 46.3093 46.28 46.272C45.1973 46.2347 44.3013 46.216 43.592 46.216H6.688C5.82933 46.216 4.87733 46.2347 3.832 46.272C2.824 46.3093 1.83467 46.384 0.864 46.496V36.696ZM63.024 3.544C63.9947 4.216 65.1333 5.056 66.44 6.064C67.7467 7.03466 69.0907 8.09866 70.472 9.256C71.8907 10.376 73.216 11.496 74.448 12.616C75.7173 13.6987 76.7627 14.688 77.584 15.584L70.64 22.696C69.8933 21.8747 68.9413 20.9227 67.784 19.84C66.6267 18.72 65.376 17.5813 64.032 16.424C62.688 15.2293 61.3627 14.1093 60.056 13.064C58.7493 12.0187 57.592 11.1413 56.584 10.432L63.024 3.544ZM54.736 40.728C57.4987 40.3547 60.112 39.832 62.576 39.16C65.0773 38.488 67.4293 37.704 69.632 36.808C71.8347 35.912 73.8507 34.9413 75.68 33.896C79.04 31.9547 82.1013 29.752 84.864 27.288C87.6267 24.7867 90.0347 22.192 92.088 19.504C94.1787 16.7787 95.84 14.1093 97.072 11.496L102.336 21.072C100.843 23.7227 98.9947 26.336 96.792 28.912C94.5893 31.4507 92.1067 33.8587 89.344 36.136C86.6187 38.4133 83.688 40.4667 80.552 42.296C78.648 43.416 76.5947 44.48 74.392 45.488C72.1893 46.4587 69.912 47.2987 67.56 48.008C65.208 48.7547 62.856 49.3147 60.504 49.688L54.736 40.728ZM142.432 3.32C142.992 4.14133 143.571 5.07467 144.168 6.12C144.803 7.128 145.4 8.136 145.96 9.144C146.557 10.152 147.061 11.0853 147.472 11.944L141.704 14.408C141.107 13.1013 140.565 12 140.08 11.104C139.632 10.1707 139.165 9.27467 138.68 8.416C138.195 7.55733 137.579 6.624 136.832 5.616L142.432 3.32ZM150.384 0.575997C151.019 1.36 151.635 2.256 152.232 3.264C152.867 4.23466 153.464 5.20533 154.024 6.176C154.621 7.14667 155.144 8.04267 155.592 8.864L149.88 11.384C149.245 10.0773 148.667 8.99467 148.144 8.136C147.621 7.24 147.099 6.4 146.576 5.616C146.053 4.79466 145.419 3.89866 144.672 2.928L150.384 0.575997ZM117.904 2.088C118.875 2.61066 119.939 3.22666 121.096 3.936C122.291 4.64533 123.485 5.37333 124.68 6.12C125.912 6.86666 127.069 7.59466 128.152 8.304C129.272 8.976 130.224 9.592 131.008 10.152L125.968 17.656C125.147 17.096 124.176 16.4613 123.056 15.752C121.973 15.0427 120.835 14.3333 119.64 13.624C118.483 12.8773 117.325 12.168 116.168 11.496C115.011 10.7867 113.947 10.152 112.976 9.592L117.904 2.088ZM106.424 41.68C108.552 41.3067 110.68 40.8587 112.808 40.336C114.973 39.8133 117.12 39.16 119.248 38.376C121.413 37.592 123.541 36.64 125.632 35.52C128.843 33.728 131.848 31.6933 134.648 29.416C137.448 27.1387 139.968 24.712 142.208 22.136C144.448 19.56 146.296 16.928 147.752 14.24L152.96 23.536C150.272 27.4933 146.987 31.1893 143.104 34.624C139.221 38.0587 134.947 41.1013 130.28 43.752C128.376 44.7973 126.267 45.8053 123.952 46.776C121.675 47.7093 119.435 48.512 117.232 49.184C115.029 49.8933 113.125 50.3787 111.52 50.64L106.424 41.68ZM109.168 14.968C110.176 15.4907 111.277 16.1067 112.472 16.816C113.667 17.5253 114.861 18.2533 116.056 19C117.251 19.7467 118.389 20.4747 119.472 21.184C120.555 21.856 121.488 22.472 122.272 23.032L117.288 30.648C116.429 30.0507 115.459 29.3973 114.376 28.688C113.293 27.9787 112.155 27.2507 110.96 26.504C109.803 25.72 108.645 24.992 107.488 24.32C106.331 23.6107 105.248 22.9947 104.24 22.472L109.168 14.968ZM162.48 8.08C163.563 8.22933 164.776 8.34133 166.12 8.416C167.501 8.45333 168.677 8.472 169.648 8.472C170.544 8.472 171.645 8.472 172.952 8.472C174.296 8.472 175.715 8.472 177.208 8.472C178.739 8.472 180.288 8.472 181.856 8.472C183.424 8.472 184.899 8.472 186.28 8.472C187.699 8.472 188.931 8.472 189.976 8.472C191.059 8.472 191.861 8.472 192.384 8.472C193.579 8.472 194.773 8.43466 195.968 8.36C197.163 8.28533 198.171 8.192 198.992 8.08V17.936C198.171 17.8987 197.107 17.8613 195.8 17.824C194.531 17.7493 193.392 17.712 192.384 17.712C191.861 17.712 191.021 17.712 189.864 17.712C188.744 17.712 187.419 17.712 185.888 17.712C184.357 17.712 182.771 17.712 181.128 17.712C179.485 17.712 177.899 17.712 176.368 17.712C174.837 17.712 173.475 17.712 172.28 17.712C171.123 17.712 170.264 17.712 169.704 17.712C168.584 17.712 167.352 17.7307 166.008 17.768C164.664 17.8053 163.488 17.8613 162.48 17.936V8.08ZM157.832 35.296C159.027 35.3707 160.315 35.464 161.696 35.576C163.077 35.6507 164.347 35.688 165.504 35.688C166.027 35.688 166.923 35.688 168.192 35.688C169.461 35.688 170.955 35.688 172.672 35.688C174.427 35.688 176.293 35.688 178.272 35.688C180.251 35.688 182.211 35.688 184.152 35.688C186.131 35.688 187.979 35.688 189.696 35.688C191.451 35.688 192.944 35.688 194.176 35.688C195.445 35.688 196.341 35.688 196.864 35.688C197.872 35.688 198.992 35.6507 200.224 35.576C201.456 35.5013 202.595 35.408 203.64 35.296V45.656C202.557 45.544 201.363 45.4507 200.056 45.376C198.787 45.3013 197.723 45.264 196.864 45.264C196.341 45.264 195.445 45.264 194.176 45.264C192.944 45.264 191.451 45.264 189.696 45.264C187.979 45.264 186.131 45.264 184.152 45.264C182.211 45.264 180.251 45.264 178.272 45.264C176.293 45.264 174.427 45.264 172.672 45.264C170.955 45.264 169.461 45.264 168.192 45.264C166.923 45.264 166.027 45.264 165.504 45.264C164.347 45.264 163.059 45.3013 161.64 45.376C160.221 45.4507 158.952 45.544 157.832 45.656V35.296ZM259.528 9.088C259.192 9.49867 258.763 10.0587 258.24 10.768C257.717 11.44 257.307 12 257.008 12.448C256.075 14.016 254.88 15.7707 253.424 17.712C252.005 19.616 250.456 21.464 248.776 23.256C247.133 25.048 245.472 26.56 243.792 27.792L236.792 22.192C237.837 21.52 238.845 20.792 239.816 20.008C240.787 19.1867 241.683 18.3467 242.504 17.488C243.325 16.6293 244.035 15.808 244.632 15.024C245.267 14.24 245.733 13.5493 246.032 12.952C245.584 12.952 244.819 12.952 243.736 12.952C242.691 12.952 241.421 12.952 239.928 12.952C238.435 12.952 236.829 12.952 235.112 12.952C233.395 12.952 231.677 12.952 229.96 12.952C228.243 12.952 226.6 12.952 225.032 12.952C223.501 12.952 222.139 12.952 220.944 12.952C219.787 12.952 218.928 12.952 218.368 12.952C217.136 12.952 215.997 12.9893 214.952 13.064C213.944 13.1387 212.712 13.2507 211.256 13.4V4.048C212.413 4.19733 213.571 4.34667 214.728 4.496C215.923 4.608 217.136 4.664 218.368 4.664C218.928 4.664 219.824 4.664 221.056 4.664C222.288 4.664 223.725 4.664 225.368 4.664C227.011 4.664 228.747 4.664 230.576 4.664C232.443 4.664 234.291 4.664 236.12 4.664C237.949 4.664 239.648 4.664 241.216 4.664C242.784 4.664 244.109 4.664 245.192 4.664C246.312 4.664 247.059 4.664 247.432 4.664C248.067 4.664 248.832 4.64533 249.728 4.608C250.624 4.57067 251.483 4.51467 252.304 4.44C253.163 4.328 253.779 4.216 254.152 4.104L259.528 9.088ZM236.456 16.704C236.456 19.3173 236.419 21.8933 236.344 24.432C236.269 26.9707 235.989 29.4347 235.504 31.824C235.056 34.2133 234.291 36.528 233.208 38.768C232.125 40.9707 230.595 43.08 228.616 45.096C226.675 47.112 224.117 48.9973 220.944 50.752L213.048 44.312C214.019 43.976 215.027 43.5467 216.072 43.024C217.155 42.5013 218.275 41.792 219.432 40.896C221 39.7013 222.269 38.488 223.24 37.256C224.248 36.024 225.013 34.6987 225.536 33.28C226.096 31.824 226.488 30.2 226.712 28.408C226.936 26.616 227.048 24.5813 227.048 22.304C227.048 21.3333 227.011 20.4187 226.936 19.56C226.899 18.664 226.787 17.712 226.6 16.704H236.456Z" fill="url(#paint0_radial_1_2504)"/>
<path d="M4.56 6.96C5.30667 7.072 6.22133 7.16533 7.304 7.24C8.38667 7.31467 9.35733 7.352 10.216 7.352H40.568C41.4267 7.352 42.3413 7.31467 43.312 7.24C44.2827 7.16533 45.1973 7.072 46.056 6.96V16.256C45.16 16.1813 44.2267 16.1253 43.256 16.088C42.2853 16.0133 41.3893 15.976 40.568 15.976H10.216C9.35733 15.976 8.38667 16.0133 7.304 16.088C6.22133 16.1253 5.30667 16.1813 4.56 16.256V6.96ZM20.072 42.352V12.112H29.592V42.352H20.072ZM0.864 36.696C1.79733 36.8453 2.768 36.976 3.776 37.088C4.82133 37.1627 5.792 37.2 6.688 37.2H43.592C44.6747 37.2 45.6827 37.144 46.616 37.032C47.5867 36.92 48.4267 36.808 49.136 36.696V46.496C48.3147 46.384 47.3627 46.3093 46.28 46.272C45.1973 46.2347 44.3013 46.216 43.592 46.216H6.688C5.82933 46.216 4.87733 46.2347 3.832 46.272C2.824 46.3093 1.83467 46.384 0.864 46.496V36.696ZM63.024 3.544C63.9947 4.216 65.1333 5.056 66.44 6.064C67.7467 7.03466 69.0907 8.09866 70.472 9.256C71.8907 10.376 73.216 11.496 74.448 12.616C75.7173 13.6987 76.7627 14.688 77.584 15.584L70.64 22.696C69.8933 21.8747 68.9413 20.9227 67.784 19.84C66.6267 18.72 65.376 17.5813 64.032 16.424C62.688 15.2293 61.3627 14.1093 60.056 13.064C58.7493 12.0187 57.592 11.1413 56.584 10.432L63.024 3.544ZM54.736 40.728C57.4987 40.3547 60.112 39.832 62.576 39.16C65.0773 38.488 67.4293 37.704 69.632 36.808C71.8347 35.912 73.8507 34.9413 75.68 33.896C79.04 31.9547 82.1013 29.752 84.864 27.288C87.6267 24.7867 90.0347 22.192 92.088 19.504C94.1787 16.7787 95.84 14.1093 97.072 11.496L102.336 21.072C100.843 23.7227 98.9947 26.336 96.792 28.912C94.5893 31.4507 92.1067 33.8587 89.344 36.136C86.6187 38.4133 83.688 40.4667 80.552 42.296C78.648 43.416 76.5947 44.48 74.392 45.488C72.1893 46.4587 69.912 47.2987 67.56 48.008C65.208 48.7547 62.856 49.3147 60.504 49.688L54.736 40.728ZM142.432 3.32C142.992 4.14133 143.571 5.07467 144.168 6.12C144.803 7.128 145.4 8.136 145.96 9.144C146.557 10.152 147.061 11.0853 147.472 11.944L141.704 14.408C141.107 13.1013 140.565 12 140.08 11.104C139.632 10.1707 139.165 9.27467 138.68 8.416C138.195 7.55733 137.579 6.624 136.832 5.616L142.432 3.32ZM150.384 0.575997C151.019 1.36 151.635 2.256 152.232 3.264C152.867 4.23466 153.464 5.20533 154.024 6.176C154.621 7.14667 155.144 8.04267 155.592 8.864L149.88 11.384C149.245 10.0773 148.667 8.99467 148.144 8.136C147.621 7.24 147.099 6.4 146.576 5.616C146.053 4.79466 145.419 3.89866 144.672 2.928L150.384 0.575997ZM117.904 2.088C118.875 2.61066 119.939 3.22666 121.096 3.936C122.291 4.64533 123.485 5.37333 124.68 6.12C125.912 6.86666 127.069 7.59466 128.152 8.304C129.272 8.976 130.224 9.592 131.008 10.152L125.968 17.656C125.147 17.096 124.176 16.4613 123.056 15.752C121.973 15.0427 120.835 14.3333 119.64 13.624C118.483 12.8773 117.325 12.168 116.168 11.496C115.011 10.7867 113.947 10.152 112.976 9.592L117.904 2.088ZM106.424 41.68C108.552 41.3067 110.68 40.8587 112.808 40.336C114.973 39.8133 117.12 39.16 119.248 38.376C121.413 37.592 123.541 36.64 125.632 35.52C128.843 33.728 131.848 31.6933 134.648 29.416C137.448 27.1387 139.968 24.712 142.208 22.136C144.448 19.56 146.296 16.928 147.752 14.24L152.96 23.536C150.272 27.4933 146.987 31.1893 143.104 34.624C139.221 38.0587 134.947 41.1013 130.28 43.752C128.376 44.7973 126.267 45.8053 123.952 46.776C121.675 47.7093 119.435 48.512 117.232 49.184C115.029 49.8933 113.125 50.3787 111.52 50.64L106.424 41.68ZM109.168 14.968C110.176 15.4907 111.277 16.1067 112.472 16.816C113.667 17.5253 114.861 18.2533 116.056 19C117.251 19.7467 118.389 20.4747 119.472 21.184C120.555 21.856 121.488 22.472 122.272 23.032L117.288 30.648C116.429 30.0507 115.459 29.3973 114.376 28.688C113.293 27.9787 112.155 27.2507 110.96 26.504C109.803 25.72 108.645 24.992 107.488 24.32C106.331 23.6107 105.248 22.9947 104.24 22.472L109.168 14.968ZM162.48 8.08C163.563 8.22933 164.776 8.34133 166.12 8.416C167.501 8.45333 168.677 8.472 169.648 8.472C170.544 8.472 171.645 8.472 172.952 8.472C174.296 8.472 175.715 8.472 177.208 8.472C178.739 8.472 180.288 8.472 181.856 8.472C183.424 8.472 184.899 8.472 186.28 8.472C187.699 8.472 188.931 8.472 189.976 8.472C191.059 8.472 191.861 8.472 192.384 8.472C193.579 8.472 194.773 8.43466 195.968 8.36C197.163 8.28533 198.171 8.192 198.992 8.08V17.936C198.171 17.8987 197.107 17.8613 195.8 17.824C194.531 17.7493 193.392 17.712 192.384 17.712C191.861 17.712 191.021 17.712 189.864 17.712C188.744 17.712 187.419 17.712 185.888 17.712C184.357 17.712 182.771 17.712 181.128 17.712C179.485 17.712 177.899 17.712 176.368 17.712C174.837 17.712 173.475 17.712 172.28 17.712C171.123 17.712 170.264 17.712 169.704 17.712C168.584 17.712 167.352 17.7307 166.008 17.768C164.664 17.8053 163.488 17.8613 162.48 17.936V8.08ZM157.832 35.296C159.027 35.3707 160.315 35.464 161.696 35.576C163.077 35.6507 164.347 35.688 165.504 35.688C166.027 35.688 166.923 35.688 168.192 35.688C169.461 35.688 170.955 35.688 172.672 35.688C174.427 35.688 176.293 35.688 178.272 35.688C180.251 35.688 182.211 35.688 184.152 35.688C186.131 35.688 187.979 35.688 189.696 35.688C191.451 35.688 192.944 35.688 194.176 35.688C195.445 35.688 196.341 35.688 196.864 35.688C197.872 35.688 198.992 35.6507 200.224 35.576C201.456 35.5013 202.595 35.408 203.64 35.296V45.656C202.557 45.544 201.363 45.4507 200.056 45.376C198.787 45.3013 197.723 45.264 196.864 45.264C196.341 45.264 195.445 45.264 194.176 45.264C192.944 45.264 191.451 45.264 189.696 45.264C187.979 45.264 186.131 45.264 184.152 45.264C182.211 45.264 180.251 45.264 178.272 45.264C176.293 45.264 174.427 45.264 172.672 45.264C170.955 45.264 169.461 45.264 168.192 45.264C166.923 45.264 166.027 45.264 165.504 45.264C164.347 45.264 163.059 45.3013 161.64 45.376C160.221 45.4507 158.952 45.544 157.832 45.656V35.296ZM259.528 9.088C259.192 9.49867 258.763 10.0587 258.24 10.768C257.717 11.44 257.307 12 257.008 12.448C256.075 14.016 254.88 15.7707 253.424 17.712C252.005 19.616 250.456 21.464 248.776 23.256C247.133 25.048 245.472 26.56 243.792 27.792L236.792 22.192C237.837 21.52 238.845 20.792 239.816 20.008C240.787 19.1867 241.683 18.3467 242.504 17.488C243.325 16.6293 244.035 15.808 244.632 15.024C245.267 14.24 245.733 13.5493 246.032 12.952C245.584 12.952 244.819 12.952 243.736 12.952C242.691 12.952 241.421 12.952 239.928 12.952C238.435 12.952 236.829 12.952 235.112 12.952C233.395 12.952 231.677 12.952 229.96 12.952C228.243 12.952 226.6 12.952 225.032 12.952C223.501 12.952 222.139 12.952 220.944 12.952C219.787 12.952 218.928 12.952 218.368 12.952C217.136 12.952 215.997 12.9893 214.952 13.064C213.944 13.1387 212.712 13.2507 211.256 13.4V4.048C212.413 4.19733 213.571 4.34667 214.728 4.496C215.923 4.608 217.136 4.664 218.368 4.664C218.928 4.664 219.824 4.664 221.056 4.664C222.288 4.664 223.725 4.664 225.368 4.664C227.011 4.664 228.747 4.664 230.576 4.664C232.443 4.664 234.291 4.664 236.12 4.664C237.949 4.664 239.648 4.664 241.216 4.664C242.784 4.664 244.109 4.664 245.192 4.664C246.312 4.664 247.059 4.664 247.432 4.664C248.067 4.664 248.832 4.64533 249.728 4.608C250.624 4.57067 251.483 4.51467 252.304 4.44C253.163 4.328 253.779 4.216 254.152 4.104L259.528 9.088ZM236.456 16.704C236.456 19.3173 236.419 21.8933 236.344 24.432C236.269 26.9707 235.989 29.4347 235.504 31.824C235.056 34.2133 234.291 36.528 233.208 38.768C232.125 40.9707 230.595 43.08 228.616 45.096C226.675 47.112 224.117 48.9973 220.944 50.752L213.048 44.312C214.019 43.976 215.027 43.5467 216.072 43.024C217.155 42.5013 218.275 41.792 219.432 40.896C221 39.7013 222.269 38.488 223.24 37.256C224.248 36.024 225.013 34.6987 225.536 33.28C226.096 31.824 226.488 30.2 226.712 28.408C226.936 26.616 227.048 24.5813 227.048 22.304C227.048 21.3333 227.011 20.4187 226.936 19.56C226.899 18.664 226.787 17.712 226.6 16.704H236.456Z" fill="url(#paint1_linear_1_2504)"/>
<defs>
<radialGradient id="paint0_radial_1_2504" cx="0" cy="0" r="1" gradientUnits="userSpaceOnUse" gradientTransform="translate(129.5 25) rotate(90) scale(42 132.5)">
<stop stop-color="#2EA2E0"/>
<stop offset="1" stop-color="#1061AB"/>
</radialGradient>
<linearGradient id="paint1_linear_1_2504" x1="-3" y1="-17" x2="45.3907" y2="135.661" gradientUnits="userSpaceOnUse">
<stop stop-color="#0053A2"/>
<stop offset="0.5" stop-color="#0070C5"/>
<stop offset="1" stop-color="#0990D8"/>
</linearGradient>
</defs>
</svg>
