<svg width="1303" height="185" viewBox="0 0 1303 185" fill="none" xmlns="http://www.w3.org/2000/svg">
<g style="mix-blend-mode:overlay">
<path d="M0.889387 3.49999H42.1994C56.1394 3.49999 66.5944 7.23999 73.5644 14.72C80.5344 22.2 84.0194 33.165 84.0194 47.615V65.21C84.0194 79.66 80.5344 90.625 73.5644 98.105C66.5944 105.585 56.1394 109.325 42.1994 109.325H28.9394V182H0.889387V3.49999ZM42.1994 83.825C46.7894 83.825 50.1894 82.55 52.3994 80C54.7794 77.45 55.9694 73.115 55.9694 66.995V45.83C55.9694 39.71 54.7794 35.375 52.3994 32.825C50.1894 30.275 46.7894 29 42.1994 29H28.9394V83.825H42.1994ZM134.699 184.55C120.929 184.55 110.389 180.64 103.079 172.82C95.7686 165 92.1136 153.95 92.1136 139.67V45.83C92.1136 31.55 95.7686 20.5 103.079 12.68C110.389 4.85999 120.929 0.94999 134.699 0.94999C148.469 0.94999 159.009 4.85999 166.319 12.68C173.629 20.5 177.284 31.55 177.284 45.83V139.67C177.284 153.95 173.629 165 166.319 172.82C159.009 180.64 148.469 184.55 134.699 184.55ZM134.699 159.05C144.389 159.05 149.234 153.185 149.234 141.455V44.045C149.234 32.315 144.389 26.45 134.699 26.45C125.009 26.45 120.164 32.315 120.164 44.045V141.455C120.164 153.185 125.009 159.05 134.699 159.05ZM184.523 3.49999H211.553L224.048 140.69H224.558L237.818 3.49999H268.418L281.678 140.69H282.188L294.683 3.49999H318.908L300.803 182H265.868L253.118 61.64H252.608L239.858 182H202.628L184.523 3.49999ZM327.997 3.49999H404.497V29H356.047V76.175H394.552V101.675H356.047V156.5H404.497V182H327.997V3.49999ZM415.533 3.49999H457.098C471.548 3.49999 482.088 6.89999 488.718 13.7C495.348 20.33 498.663 30.615 498.663 44.555V55.52C498.663 74.05 492.543 85.78 480.303 90.71V91.22C487.103 93.26 491.863 97.425 494.583 103.715C497.473 110.005 498.918 118.42 498.918 128.96V160.325C498.918 165.425 499.088 169.59 499.428 172.82C499.768 175.88 500.618 178.94 501.978 182H473.418C472.398 179.11 471.718 176.39 471.378 173.84C471.038 171.29 470.868 166.7 470.868 160.07V127.43C470.868 119.27 469.508 113.575 466.788 110.345C464.238 107.115 459.733 105.5 453.273 105.5H443.583V182H415.533V3.49999ZM453.783 80C459.393 80 463.558 78.555 466.278 75.665C469.168 72.775 470.613 67.93 470.613 61.13V47.36C470.613 40.9 469.423 36.225 467.043 33.335C464.833 30.445 461.263 29 456.333 29H443.583V80H453.783ZM549.745 184.55C536.145 184.55 525.86 180.725 518.89 173.075C511.92 165.255 508.435 154.12 508.435 139.67V129.47H534.955V141.71C534.955 153.27 539.8 159.05 549.49 159.05C554.25 159.05 557.82 157.69 560.2 154.97C562.75 152.08 564.025 147.49 564.025 141.2C564.025 133.72 562.325 127.175 558.925 121.565C555.525 115.785 549.235 108.9 540.055 100.91C528.495 90.71 520.42 81.53 515.83 73.37C511.24 65.04 508.945 55.69 508.945 45.32C508.945 31.21 512.515 20.33 519.655 12.68C526.795 4.85999 537.165 0.94999 550.765 0.94999C564.195 0.94999 574.31 4.85999 581.11 12.68C588.08 20.33 591.565 31.38 591.565 45.83V53.225H565.045V44.045C565.045 37.925 563.855 33.505 561.475 30.785C559.095 27.895 555.61 26.45 551.02 26.45C541.67 26.45 536.995 32.145 536.995 43.535C536.995 49.995 538.695 56.03 542.095 61.64C545.665 67.25 552.04 74.05 561.22 82.04C572.95 92.24 581.025 101.505 585.445 109.835C589.865 118.165 592.075 127.94 592.075 139.16C592.075 153.78 588.42 165 581.11 172.82C573.97 180.64 563.515 184.55 549.745 184.55ZM638.798 3.49999H713.003V29H666.848V78.725H703.058V104.225H666.848V182H638.798V3.49999ZM721.354 3.49999H762.919C777.369 3.49999 787.909 6.89999 794.539 13.7C801.169 20.33 804.484 30.615 804.484 44.555V55.52C804.484 74.05 798.364 85.78 786.124 90.71V91.22C792.924 93.26 797.684 97.425 800.404 103.715C803.294 110.005 804.739 118.42 804.739 128.96V160.325C804.739 165.425 804.909 169.59 805.249 172.82C805.589 175.88 806.439 178.94 807.799 182H779.239C778.219 179.11 777.539 176.39 777.199 173.84C776.859 171.29 776.689 166.7 776.689 160.07V127.43C776.689 119.27 775.329 113.575 772.609 110.345C770.059 107.115 765.554 105.5 759.094 105.5H749.404V182H721.354V3.49999ZM759.604 80C765.214 80 769.379 78.555 772.099 75.665C774.989 72.775 776.434 67.93 776.434 61.13V47.36C776.434 40.9 775.244 36.225 772.864 33.335C770.654 30.445 767.084 29 762.154 29H749.404V80H759.604ZM819.101 3.49999H895.601V29H847.151V76.175H885.656V101.675H847.151V156.5H895.601V182H819.101V3.49999ZM906.637 3.49999H983.137V29H934.687V76.175H973.192V101.675H934.687V156.5H983.137V182H906.637V3.49999ZM994.174 3.49999H1037.01C1050.95 3.49999 1061.41 7.23999 1068.38 14.72C1075.35 22.2 1078.83 33.165 1078.83 47.615V137.885C1078.83 152.335 1075.35 163.3 1068.38 170.78C1061.41 178.26 1050.95 182 1037.01 182H994.174V3.49999ZM1036.5 156.5C1041.09 156.5 1044.58 155.14 1046.96 152.42C1049.51 149.7 1050.78 145.28 1050.78 139.16V46.34C1050.78 40.22 1049.51 35.8 1046.96 33.08C1044.58 30.36 1041.09 29 1036.5 29H1022.22V156.5H1036.5ZM1132.45 184.55C1118.85 184.55 1108.48 180.725 1101.34 173.075C1094.2 165.255 1090.63 154.12 1090.63 139.67V45.83C1090.63 31.38 1094.2 20.33 1101.34 12.68C1108.48 4.85999 1118.85 0.94999 1132.45 0.94999C1146.05 0.94999 1156.42 4.85999 1163.56 12.68C1170.7 20.33 1174.27 31.38 1174.27 45.83V61.13H1147.75V44.045C1147.75 32.315 1142.9 26.45 1133.21 26.45C1123.52 26.45 1118.68 32.315 1118.68 44.045V141.71C1118.68 153.27 1123.52 159.05 1133.21 159.05C1142.9 159.05 1147.75 153.27 1147.75 141.71V106.775H1133.72V81.275H1174.27V139.67C1174.27 154.12 1170.7 165.255 1163.56 173.075C1156.42 180.725 1146.05 184.55 1132.45 184.55ZM1187.18 3.49999H1263.68V29H1215.23V76.175H1253.73V101.675H1215.23V156.5H1263.68V182H1187.18V3.49999ZM1275.96 154.97H1302.99V182H1275.96V154.97Z" fill="#313131"/>
<path d="M0.889387 3.49999H42.1994C56.1394 3.49999 66.5944 7.23999 73.5644 14.72C80.5344 22.2 84.0194 33.165 84.0194 47.615V65.21C84.0194 79.66 80.5344 90.625 73.5644 98.105C66.5944 105.585 56.1394 109.325 42.1994 109.325H28.9394V182H0.889387V3.49999ZM42.1994 83.825C46.7894 83.825 50.1894 82.55 52.3994 80C54.7794 77.45 55.9694 73.115 55.9694 66.995V45.83C55.9694 39.71 54.7794 35.375 52.3994 32.825C50.1894 30.275 46.7894 29 42.1994 29H28.9394V83.825H42.1994ZM134.699 184.55C120.929 184.55 110.389 180.64 103.079 172.82C95.7686 165 92.1136 153.95 92.1136 139.67V45.83C92.1136 31.55 95.7686 20.5 103.079 12.68C110.389 4.85999 120.929 0.94999 134.699 0.94999C148.469 0.94999 159.009 4.85999 166.319 12.68C173.629 20.5 177.284 31.55 177.284 45.83V139.67C177.284 153.95 173.629 165 166.319 172.82C159.009 180.64 148.469 184.55 134.699 184.55ZM134.699 159.05C144.389 159.05 149.234 153.185 149.234 141.455V44.045C149.234 32.315 144.389 26.45 134.699 26.45C125.009 26.45 120.164 32.315 120.164 44.045V141.455C120.164 153.185 125.009 159.05 134.699 159.05ZM184.523 3.49999H211.553L224.048 140.69H224.558L237.818 3.49999H268.418L281.678 140.69H282.188L294.683 3.49999H318.908L300.803 182H265.868L253.118 61.64H252.608L239.858 182H202.628L184.523 3.49999ZM327.997 3.49999H404.497V29H356.047V76.175H394.552V101.675H356.047V156.5H404.497V182H327.997V3.49999ZM415.533 3.49999H457.098C471.548 3.49999 482.088 6.89999 488.718 13.7C495.348 20.33 498.663 30.615 498.663 44.555V55.52C498.663 74.05 492.543 85.78 480.303 90.71V91.22C487.103 93.26 491.863 97.425 494.583 103.715C497.473 110.005 498.918 118.42 498.918 128.96V160.325C498.918 165.425 499.088 169.59 499.428 172.82C499.768 175.88 500.618 178.94 501.978 182H473.418C472.398 179.11 471.718 176.39 471.378 173.84C471.038 171.29 470.868 166.7 470.868 160.07V127.43C470.868 119.27 469.508 113.575 466.788 110.345C464.238 107.115 459.733 105.5 453.273 105.5H443.583V182H415.533V3.49999ZM453.783 80C459.393 80 463.558 78.555 466.278 75.665C469.168 72.775 470.613 67.93 470.613 61.13V47.36C470.613 40.9 469.423 36.225 467.043 33.335C464.833 30.445 461.263 29 456.333 29H443.583V80H453.783ZM549.745 184.55C536.145 184.55 525.86 180.725 518.89 173.075C511.92 165.255 508.435 154.12 508.435 139.67V129.47H534.955V141.71C534.955 153.27 539.8 159.05 549.49 159.05C554.25 159.05 557.82 157.69 560.2 154.97C562.75 152.08 564.025 147.49 564.025 141.2C564.025 133.72 562.325 127.175 558.925 121.565C555.525 115.785 549.235 108.9 540.055 100.91C528.495 90.71 520.42 81.53 515.83 73.37C511.24 65.04 508.945 55.69 508.945 45.32C508.945 31.21 512.515 20.33 519.655 12.68C526.795 4.85999 537.165 0.94999 550.765 0.94999C564.195 0.94999 574.31 4.85999 581.11 12.68C588.08 20.33 591.565 31.38 591.565 45.83V53.225H565.045V44.045C565.045 37.925 563.855 33.505 561.475 30.785C559.095 27.895 555.61 26.45 551.02 26.45C541.67 26.45 536.995 32.145 536.995 43.535C536.995 49.995 538.695 56.03 542.095 61.64C545.665 67.25 552.04 74.05 561.22 82.04C572.95 92.24 581.025 101.505 585.445 109.835C589.865 118.165 592.075 127.94 592.075 139.16C592.075 153.78 588.42 165 581.11 172.82C573.97 180.64 563.515 184.55 549.745 184.55ZM638.798 3.49999H713.003V29H666.848V78.725H703.058V104.225H666.848V182H638.798V3.49999ZM721.354 3.49999H762.919C777.369 3.49999 787.909 6.89999 794.539 13.7C801.169 20.33 804.484 30.615 804.484 44.555V55.52C804.484 74.05 798.364 85.78 786.124 90.71V91.22C792.924 93.26 797.684 97.425 800.404 103.715C803.294 110.005 804.739 118.42 804.739 128.96V160.325C804.739 165.425 804.909 169.59 805.249 172.82C805.589 175.88 806.439 178.94 807.799 182H779.239C778.219 179.11 777.539 176.39 777.199 173.84C776.859 171.29 776.689 166.7 776.689 160.07V127.43C776.689 119.27 775.329 113.575 772.609 110.345C770.059 107.115 765.554 105.5 759.094 105.5H749.404V182H721.354V3.49999ZM759.604 80C765.214 80 769.379 78.555 772.099 75.665C774.989 72.775 776.434 67.93 776.434 61.13V47.36C776.434 40.9 775.244 36.225 772.864 33.335C770.654 30.445 767.084 29 762.154 29H749.404V80H759.604ZM819.101 3.49999H895.601V29H847.151V76.175H885.656V101.675H847.151V156.5H895.601V182H819.101V3.49999ZM906.637 3.49999H983.137V29H934.687V76.175H973.192V101.675H934.687V156.5H983.137V182H906.637V3.49999ZM994.174 3.49999H1037.01C1050.95 3.49999 1061.41 7.23999 1068.38 14.72C1075.35 22.2 1078.83 33.165 1078.83 47.615V137.885C1078.83 152.335 1075.35 163.3 1068.38 170.78C1061.41 178.26 1050.95 182 1037.01 182H994.174V3.49999ZM1036.5 156.5C1041.09 156.5 1044.58 155.14 1046.96 152.42C1049.51 149.7 1050.78 145.28 1050.78 139.16V46.34C1050.78 40.22 1049.51 35.8 1046.96 33.08C1044.58 30.36 1041.09 29 1036.5 29H1022.22V156.5H1036.5ZM1132.45 184.55C1118.85 184.55 1108.48 180.725 1101.34 173.075C1094.2 165.255 1090.63 154.12 1090.63 139.67V45.83C1090.63 31.38 1094.2 20.33 1101.34 12.68C1108.48 4.85999 1118.85 0.94999 1132.45 0.94999C1146.05 0.94999 1156.42 4.85999 1163.56 12.68C1170.7 20.33 1174.27 31.38 1174.27 45.83V61.13H1147.75V44.045C1147.75 32.315 1142.9 26.45 1133.21 26.45C1123.52 26.45 1118.68 32.315 1118.68 44.045V141.71C1118.68 153.27 1123.52 159.05 1133.21 159.05C1142.9 159.05 1147.75 153.27 1147.75 141.71V106.775H1133.72V81.275H1174.27V139.67C1174.27 154.12 1170.7 165.255 1163.56 173.075C1156.42 180.725 1146.05 184.55 1132.45 184.55ZM1187.18 3.49999H1263.68V29H1215.23V76.175H1253.73V101.675H1215.23V156.5H1263.68V182H1187.18V3.49999ZM1275.96 154.97H1302.99V182H1275.96V154.97Z" fill="white"/>
</g>
</svg>
